<svg xmlns="http://www.w3.org/2000/svg" viewBox="0 0 960 560"><style>.st0{fill:#bd000a}.st1,.st2,.st3{fill:none;stroke:#fff;stroke-width:3;stroke-miterlimit:10}.st2,.st3{stroke:#ed4c37}.st3{stroke:#000}.st4{fill:#ffd6b0}.st5{fill:#553117;stroke:#553117;stroke-width:2;stroke-miterlimit:10}.st6,.st7,.st8,.st9{stroke:#000;stroke-miterlimit:10}.st6{opacity:.2;stroke-width:2}.st7,.st8,.st9{fill:none;stroke-width:2.5}.st8,.st9{fill:#f1c2a4;stroke:#f1c2a4;stroke-width:2}.st9{fill:#2e0d05;stroke:#2e0d05}.st10{fill:#857f7d}.st11,.st12{stroke-miterlimit:10}.st11{opacity:.25;fill:#000105;stroke:#000}.st12{fill:#9a300b;stroke:#9a300b}.st13{opacity:.8}.st13,.st14{fill:#e5e0d7}.st15{fill:#dea6af}.st16,.st17,.st18{fill:none;stroke:#fff;stroke-width:10;stroke-miterlimit:10}.st17,.st18{stroke:#ed4c37}.st18{stroke:#fff;stroke-width:12}.st19{fill:#fff}</style><path class="st0" d="M.3.6h960v560H.3z" id="Faces-background_color"/><g id="_x32_1_logo"><path class="st1" d="M880.5 484v39M898.9 503.7l-11-.1"/><path class="st2" d="M910.1 488.7l-8.2 27.9"/><circle class="st1" cx="892.1" cy="502.6" r="34.5"/></g><g id="Face_1"><path class="st4" d="M772.2 350c-12.4 10.5-29 26.1-51.3 49-4.4 4.5-10.1 7-16 7h-19.7.6l-.3-.6 14.7-30.8-14.8 30.5-.4.9h-19c-5.9 0-11.6-2.5-16-7-24.7-25.4-42.5-41.7-55.2-52.2-17.5-14.5-27.5-38.1-26.8-62.8 1.6-60.2.7-120 .7-120l45.2 93.5-44.4-93.5 116.2.4 114.5.4h.7v2.2c.1 13.3.4 61.2 1.8 110.5.8 28.5-10.6 55.5-30.5 72.5z"/><path class="st5" d="M801.3 269.2l-10.7-.1c-9.8-.1-17.5-8.2-17.1-18l2.8-66.2s-22.3-42.2-89.6-5.6c-.1 0-.2.1-.3.2-67.5-36.9-90 5.5-90 5.5l2.8 66.6c.4 9.5-7.3 17.5-16.8 17.4l-12.9-.1-1.4-124.6s-1.2-34.8 27.6-50.4 66-3.6 88.8-30c0 0 10.8 25.2-4.8 36 .8-.2 20.7-5.8 27.7-15.8 3.6-5.2-5.5 17.1-8.2 23.5 0 0 84.9-17.9 100.7 26.5l1.4 135.1z"/><path class="st6" d="M688 96.9c-5 1.7-7.6 2.7-7.9 2.7 4.7-3.3 6.9-7.9 7.9-12.7V75.2c-1-6.5-3.3-11.5-3.3-11.5-22.8 26.4-60.1 14.4-88.9 30s-27.7 50.4-27.7 50.4l.8 77.2v.2c0 18.9-.3 40.7-.9 62.5-.7 24.8 9.3 48.3 26.8 62.8 12.7 10.5 30.5 26.8 55.2 52.2 4.4 4.5 10.1 7 16 7h19l.4-.9.1.3.3.6h2.2V96.9z"/><path class="st7" d="M753.4 258.4s-22.1-11.9-46.3 0"/><circle cx="730.4" cy="262.3" r="9"/><path class="st7" d="M620.1 257.4s22.1-10.9 46.3 1"/><path d="M633.6 261.4c0-5 4-8 9-8s9 3 9 8-4 10-9 10c-5 .1-9-5-9-10zM656.2 402.5h1.1v2.1h-1.1zM674.8 396h1.1v2.1h-1.1zM677.1 404.1h1.1v2.1h-1.1zM681.5 395.6h1.1v2.1h-1.1z"/><path transform="rotate(-42.779 765.893 355.046)" d="M765.4 354h1.1v2.1h-1.1z"/><path transform="rotate(-42.779 757.3 352.35)" d="M756.8 351.3h1.1v2.1h-1.1z"/><path transform="rotate(-42.779 754.757 347.06)" d="M754.3 346h1.1v2.1h-1.1z"/><path transform="rotate(-42.779 758.916 346.152)" d="M758.4 345.1h1.1v2.1h-1.1z"/><path d="M707.3 394.6h1.1v2.1h-1.1z"/><path transform="rotate(-42.779 754.753 362.707)" d="M754.3 361.7h1.1v2.1h-1.1z"/><path transform="rotate(-42.779 761.728 360.076)" d="M761.3 359h1.1v2.1h-1.1z"/><path transform="rotate(-42.779 761.132 351.807)" d="M760.7 350.8h1.1v2.1h-1.1z"/><path transform="rotate(-42.779 746.51 369.469)" d="M746 368.4h1.1v2.1H746z"/><path transform="rotate(-42.779 741.371 370.635)" d="M740.9 369.6h1.1v2.1h-1.1z"/><path transform="rotate(-42.779 750.594 361.22)" d="M750.1 360.2h1.1v2.1h-1.1z"/><path transform="rotate(-42.779 753.03 357.496)" d="M752.6 356.5h1.1v2.1h-1.1z"/><path transform="rotate(-42.779 736.478 375.937)" d="M736 374.9h1.1v2.1H736z"/><path transform="rotate(-42.779 732.129 377.546)" d="M731.7 376.5h1.1v2.1h-1.1z"/><path transform="rotate(-42.779 734.464 370.013)" d="M734 369h1.1v2.1H734z"/><path transform="rotate(-42.779 740.8 361.461)" d="M740.3 360.4h1.1v2.1h-1.1z"/><path d="M702.7 397.4h1.1v2.1h-1.1zM700.3 404.5h1.1v2.1h-1.1zM703.5 406.1h1.1v2.1h-1.1zM695.8 397.9h1.1v2.1h-1.1zM667.4 401.8h1.1v2.1h-1.1zM694.3 406.1h1.1v2.1h-1.1zM684.4 405h1.1v2.1h-1.1zM705.2 401.3h1.1v2.1h-1.1zM711.8 397h1.1v2.1h-1.1zM711.6 402.4h1.1v2.1h-1.1zM717.8 394.5h1.1v2.1h-1.1zM717.5 399.2h1.1v2.1h-1.1zM689.8 398.2h1.1v2.1h-1.1z"/><path transform="rotate(-42.779 729.753 389.072)" d="M729.3 388h1.1v2.1h-1.1z"/><path transform="rotate(-42.779 724.77 380.997)" d="M724.3 380h1.1v2.1h-1.1z"/><path transform="rotate(-3.551 575.154 295.06) scale(1.00002)" d="M574.6 294h1.1v2.1h-1.1z"/><path transform="rotate(88.102 572.118 300.573) scale(1.00005)" d="M571.6 299.5h1.1v2.1h-1.1z"/><path transform="rotate(88.102 578.127 307.08) scale(1.00005)" d="M577.6 306h1.1v2.1h-1.1z"/><path transform="rotate(88.102 593.82 325.26) scale(1.00005)" d="M593.3 324.2h1.1v2.1h-1.1z"/><path transform="rotate(88.102 662.458 321.136) scale(1.00005)" d="M661.9 320.1h1.1v2.1h-1.1z"/><path transform="rotate(88.102 673.385 322.2) scale(1.00005)" d="M672.9 321.2h1.1v2.1h-1.1z"/><path transform="rotate(88.102 589.917 333.78) scale(1.00005)" d="M589.4 332.7h1.1v2.1h-1.1z"/><path transform="rotate(88.102 588.03 337.105) scale(1.00005)" d="M587.5 336.1h1.1v2.1h-1.1z"/><path transform="rotate(88.102 585.225 320.298) scale(1.00005)" d="M584.7 319.3h1.1v2.1h-1.1z"/><path transform="rotate(-25.271 584.059 330.538)" d="M583.5 329.5h1.1v2.1h-1.1z"/><path transform="rotate(-54.303 590.225 328.862)" d="M589.7 327.8h1.1v2.1h-1.1z"/><path transform="rotate(88.102 583.862 316.144) scale(1.00005)" d="M583.3 315.1h1.1v2.1h-1.1z"/><path transform="rotate(-20.61 590.534 319.227)" d="M590.1 318.2h1.1v2.1h-1.1z"/><path transform="rotate(88.102 578.953 312.07) scale(1.00005)" d="M578.4 311h1.1v2.1h-1.1z"/><path transform="rotate(88.102 580.893 324.73) scale(1.00005)" d="M580.4 323.7h1.1v2.1h-1.1z"/><path transform="rotate(-45.001 580.493 320.953)" d="M580 319.9h1.1v2.1H580z"/><path transform="rotate(88.102 582.024 305.38) scale(1.00005)" d="M581.5 304.3h1.1v2.1h-1.1z"/><path transform="rotate(-42.779 801.678 273.364)" d="M801.2 272.3h1.1v2.1h-1.1z"/><path transform="rotate(134.999 600.563 335.805)" d="M600 334.8h1.1v2.1H600z"/><path d="M606.3 341.9h1.1v2.1h-1.1z"/><path transform="rotate(-42.779 793.619 273.739)" d="M793.2 272.7h1.1v2.1h-1.1z"/><path d="M594.6 335h1.1v2.1h-1.1z"/><path transform="rotate(77.385 591.43 338.561)" d="M590.9 337.5h1.1v2.1h-1.1z"/><path transform="rotate(77.385 595.513 343.582)" d="M595 342.6h1.1v2.1H595z"/><path transform="rotate(77.385 596.813 339.502)" d="M596.3 338.5h1.1v2.1h-1.1z"/><path transform="rotate(77.385 600.96 343.588)" d="M600.5 342.6h1.1v2.1h-1.1z"/><path transform="rotate(106.362 602.286 347.257)" d="M601.8 346.2h1.1v2.1h-1.1z"/><path transform="rotate(106.362 607.188 348.48)" d="M606.7 347.4h1.1v2.1h-1.1z"/><path transform="rotate(106.362 638.243 386.076)" d="M637.7 385h1.1v2.1h-1.1z"/><path transform="rotate(88.102 575.456 303.41) scale(1.00005)" d="M574.9 302.4h1.1v2.1h-1.1z"/><path transform="rotate(88.102 575.347 310.05) scale(1.00005)" d="M574.8 309h1.1v2.1h-1.1z"/><path transform="rotate(-120 571.42 294.372)" d="M570.9 293.3h1.1v2.1h-1.1z"/><path transform="rotate(88.102 571.677 287.69) scale(1.00005)" d="M571.1 286.6h1.1v2.1h-1.1z"/><path transform="rotate(88.102 569.263 279.815) scale(1.00005)" d="M568.7 278.8h1.1v2.1h-1.1z"/><path transform="rotate(-165.016 575.288 282.95)" d="M574.8 281.9h1.1v2.1h-1.1z"/><path transform="rotate(30 577.298 298.208)" d="M576.8 297.2h1.1v2.1h-1.1z"/><path transform="rotate(49.534 581.301 290.894)" d="M580.8 289.8h1.1v2.1h-1.1z"/><path transform="rotate(-44.529 783.26 333.02)" d="M782.7 332h1.1v2.1h-1.1z"/><path transform="rotate(-44.529 785.18 331.224)" d="M784.7 330.2h1.1v2.1h-1.1z"/><path transform="rotate(-44.529 785.896 322.396)" d="M785.4 321.4h1.1v2.1h-1.1z"/><path transform="rotate(-44.529 788.643 298.538)" d="M788.1 297.5h1.1v2.1h-1.1z"/><path transform="rotate(-44.529 797.555 295.64)" d="M797 294.6h1.1v2.1H797z"/><path transform="rotate(-44.529 801.279 294.776)" d="M800.8 293.8h1.1v2.1h-1.1z"/><path transform="rotate(-44.529 790.814 308.222)" d="M790.3 307.2h1.1v2.1h-1.1z"/><path transform="rotate(-44.529 797.075 304.468)" d="M796.6 303.4h1.1v2.1h-1.1z"/><path transform="rotate(-44.529 796.568 300.17)" d="M796.1 299.1h1.1v2.1h-1.1z"/><path transform="rotate(-44.529 788.68 312.038)" d="M788.2 311h1.1v2.1h-1.1z"/><path transform="rotate(-44.529 786.402 304.982)" d="M785.9 304h1.1v2.1h-1.1z"/><path transform="rotate(-44.529 789.01 318.409)" d="M788.5 317.4h1.1v2.1h-1.1z"/><path transform="rotate(-44.529 797.008 308.408)" d="M796.5 307.4h1.1v2.1h-1.1z"/><path transform="rotate(-44.529 794.493 311.265)" d="M794 310.2h1.1v2.1H794z"/><path transform="rotate(-44.529 782.007 320.68)" d="M781.5 319.7h1.1v2.1h-1.1z"/><path transform="rotate(-44.529 791.835 286.44)" d="M791.3 285.4h1.1v2.1h-1.1z"/><path transform="rotate(-44.529 793.587 276.26)" d="M793.1 275.2h1.1v2.1h-1.1z"/><path transform="rotate(-55.248 795.675 290.306)" d="M795.1 289.2h1.1v2.1h-1.1z"/><path transform="rotate(-55.248 800.072 291.291)" d="M799.5 290.2h1.1v2.1h-1.1z"/><path transform="rotate(-55.248 801.001 284.887)" d="M800.5 283.8h1.1v2.1h-1.1z"/><path transform="rotate(-55.248 797.118 286.694)" d="M796.6 285.6h1.1v2.1h-1.1z"/><path transform="rotate(-55.248 797.316 280.874)" d="M796.8 279.8h1.1v2.1h-1.1z"/><path transform="rotate(-26.272 799.077 277.466)" d="M798.6 276.4h1.1v2.1h-1.1z"/><path transform="rotate(-26.272 796.657 273.031)" d="M796.2 272h1.1v2.1h-1.1z"/><path transform="rotate(-6.012 619.522 355.646)" d="M618.8 354.6h1.1v2.1h-1.1z"/><path transform="rotate(-6.012 635.518 332.606)" d="M634.8 331.6h1.1v2.1h-1.1z"/><path transform="rotate(-6.012 623.915 336.885)" d="M623.2 335.9h1.1v2.1h-1.1z"/><path transform="rotate(5.51 612.922 357.212) scale(1.00002)" d="M612.4 356.2h1.1v2.1h-1.1z"/><path transform="rotate(-18.493 606.036 353.784)" d="M605.6 352.8h1.1v2.1h-1.1z"/><path transform="rotate(10.486 609.577 352.143)" d="M609.1 351.1h1.1v2.1h-1.1z"/><path transform="rotate(-44.529 785.006 326.846)" d="M784.5 325.8h1.1v2.1h-1.1z"/><path transform="rotate(-44.529 789.965 322.43)" d="M789.5 321.4h1.1v2.1h-1.1z"/><path transform="rotate(-44.529 781.083 335.945)" d="M780.6 334.9h1.1v2.1h-1.1z"/><path transform="rotate(-44.529 776 340.274)" d="M775.5 339.3h1.1v2.1h-1.1z"/><path transform="rotate(-44.529 771.841 347.383)" d="M771.3 346.4h1.1v2.1h-1.1z"/><path transform="rotate(-44.529 770.061 340.824)" d="M769.6 339.8h1.1v2.1h-1.1z"/><path transform="rotate(-44.529 779.957 329)" d="M779.4 328h1.1v2.1h-1.1z"/><path transform="rotate(-44.529 771.828 331.046)" d="M771.3 330h1.1v2.1h-1.1z"/><path transform="rotate(-42.779 763.552 346.923)" d="M763.1 345.9h1.1v2.1h-1.1z"/><path transform="rotate(-42.779 719.907 387.01)" d="M719.4 386h1.1v2.1h-1.1z"/><path transform="rotate(-155.45 629.692 328.43)" d="M629.2 327.4h1.1v2.1h-1.1z"/><path transform="rotate(-155.45 646.41 328.33)" d="M645.9 327.3h1.1v2.1h-1.1z"/><path transform="rotate(-155.45 639.9 332.337)" d="M639.4 331.3h1.1v2.1h-1.1z"/><path transform="rotate(-155.45 629.787 337)" d="M629.3 335.9h1.1v2.1h-1.1z"/><path transform="rotate(-24.269 639.516 325.403)" d="M638.9 324.3h1.1v2.1h-1.1z"/><path transform="rotate(-155.45 621.4 331.58)" d="M620.9 330.5h1.1v2.1h-1.1z"/><path transform="rotate(40.288 655.17 391.227)" d="M654.6 390.2h1.1v2.1h-1.1z"/><path transform="rotate(40.288 653.391 386.267)" d="M652.8 385.2h1.1v2.1h-1.1z"/><path transform="rotate(40.288 638.581 379.612)" d="M638 378.5h1.1v2.1H638z"/><path transform="rotate(40.288 650.205 377.34)" d="M649.6 376.3h1.1v2.1h-1.1z"/><path transform="rotate(40.288 653.175 379.334)" d="M652.6 378.3h1.1v2.1h-1.1z"/><path transform="rotate(-155.45 754.151 336.893)" d="M753.6 335.8h1.1v2.1h-1.1z"/><path transform="rotate(-155.45 740.285 334.84)" d="M739.8 333.8h1.1v2.1h-1.1z"/><path transform="rotate(-155.45 697.618 320.565)" d="M697.1 319.5h1.1v2.1h-1.1z"/><path transform="rotate(-155.45 702.95 327.648)" d="M702.4 326.6h1.1v2.1h-1.1z"/><path transform="rotate(-155.45 714.537 330.496)" d="M714 329.4h1.1v2.1H714z"/><path transform="rotate(-155.45 719.983 328.47)" d="M719.5 327.4h1.1v2.1h-1.1z"/><path transform="rotate(-155.45 653.421 331.835)" d="M652.9 330.8h1.1v2.1h-1.1z"/><path transform="rotate(-155.45 692.385 328.48)" d="M691.9 327.4h1.1v2.1h-1.1z"/><path transform="rotate(-155.45 681.917 330.153)" d="M681.4 329.1h1.1v2.1h-1.1z"/><path transform="rotate(-155.45 678.412 326.147)" d="M677.9 325.1h1.1v2.1h-1.1z"/><path transform="rotate(-155.45 681.823 321.296)" d="M681.3 320.2h1.1v2.1h-1.1z"/><path transform="rotate(-155.45 612.973 339.625)" d="M612.4 338.6h1.1v2.1h-1.1z"/><path transform="rotate(-155.45 661.803 326.425)" d="M661.3 325.4h1.1v2.1h-1.1z"/><path transform="rotate(-155.45 652.92 327.328)" d="M652.4 326.3h1.1v2.1h-1.1z"/><path transform="rotate(-155.45 650.918 322.32)" d="M650.4 321.3h1.1v2.1h-1.1z"/><path transform="rotate(-155.45 745.39 329.342)" d="M744.9 328.3h1.1v2.1h-1.1z"/><path transform="rotate(-155.45 743.087 326.629)" d="M742.6 325.6h1.1v2.1h-1.1z"/><path transform="rotate(-155.45 705.107 321.973)" d="M704.6 320.9h1.1v2.1h-1.1z"/><path transform="rotate(-155.45 711.2 320.595)" d="M710.7 319.5h1.1v2.1h-1.1z"/><path transform="rotate(-155.45 691.35 319.907)" d="M690.8 318.9h1.1v2.1h-1.1z"/><path transform="rotate(-155.45 668.314 324.422)" d="M667.8 323.4h1.1v2.1h-1.1z"/><path transform="rotate(-155.45 615.396 333.897)" d="M614.9 332.8h1.1v2.1h-1.1z"/><path transform="rotate(-155.45 746.746 337.317)" d="M746.2 336.3h1.1v2.1h-1.1z"/><path transform="rotate(-155.45 751.514 330.479)" d="M751 329.4h1.1v2.1H751z"/><path transform="rotate(-155.45 728.068 328.794)" d="M727.5 327.7h1.1v2.1h-1.1z"/><path transform="rotate(-155.45 711.2 323.829)" d="M710.7 322.8h1.1v2.1h-1.1z"/><path transform="rotate(-155.45 717.768 321.913)" d="M717.2 320.9h1.1v2.1h-1.1z"/><path transform="rotate(-155.45 733.566 328.148)" d="M733 327.1h1.1v2.1H733z"/><path transform="rotate(-155.45 737.171 332.555)" d="M736.6 331.5h1.1v2.1h-1.1z"/><path transform="rotate(-155.45 736.573 322.733)" d="M736 321.7h1.1v2.1H736z"/><path transform="rotate(-155.45 693.813 325.287)" d="M693.3 324.2h1.1v2.1h-1.1z"/><path transform="rotate(-155.45 686.35 324.854)" d="M685.8 323.8h1.1v2.1h-1.1z"/><path transform="rotate(-155.45 670.949 327.821)" d="M670.4 326.8h1.1v2.1h-1.1z"/><path transform="rotate(-155.45 617.927 343.326)" d="M617.4 342.3h1.1v2.1h-1.1z"/><path transform="rotate(83.067 622.615 360.706)" d="M622.1 359.7h1.1v2.1h-1.1z"/><path transform="rotate(83.067 617.233 361.143)" d="M616.7 360.1h1.1v2.1h-1.1z"/><path transform="rotate(83.067 726.2 324.384)" d="M725.7 323.3h1.1v2.1h-1.1z"/><path transform="rotate(83.067 727.229 320.45)" d="M726.7 319.4h1.1v2.1h-1.1z"/><path transform="rotate(83.067 720.817 324.821)" d="M720.3 323.8h1.1v2.1h-1.1z"/><path transform="rotate(83.067 644.42 383.418)" d="M643.9 382.4h1.1v2.1h-1.1z"/><path transform="rotate(162.708 625.885 366.31)" d="M625.3 365.3h1.1v2.1h-1.1z"/><path transform="rotate(-62.497 621.173 366.535)" d="M620.6 365.5h1.1v2.1h-1.1z"/><path transform="rotate(-155.45 734.297 383.359)" d="M733.8 382.3h1.1v2.1h-1.1z"/><path transform="rotate(40.288 633.684 376.959)" d="M633.1 375.9h1.1v2.1h-1.1z"/><path transform="rotate(40.288 641.1 371.036)" d="M640.5 370h1.1v2.1h-1.1z"/><path transform="rotate(40.288 646.24 330.653)" d="M645.7 329.6h1.1v2.1h-1.1z"/><path transform="rotate(88.102 662.458 321.136) scale(1.00005)" d="M661.9 320.1h1.1v2.1h-1.1z"/><path transform="rotate(88.102 673.385 322.2) scale(1.00005)" d="M672.9 321.2h1.1v2.1h-1.1z"/><path transform="rotate(-6.012 635.518 332.606)" d="M634.8 331.6h1.1v2.1h-1.1z"/><path transform="rotate(-6.012 623.915 336.885)" d="M623.2 335.9h1.1v2.1h-1.1z"/><path transform="rotate(-155.45 629.692 328.43)" d="M629.2 327.4h1.1v2.1h-1.1z"/><path transform="rotate(-155.45 646.41 328.33)" d="M645.9 327.3h1.1v2.1h-1.1z"/><path transform="rotate(-155.45 639.9 332.337)" d="M639.4 331.3h1.1v2.1h-1.1z"/><path transform="rotate(-155.45 629.787 337)" d="M629.3 335.9h1.1v2.1h-1.1z"/><path transform="rotate(-24.269 639.516 325.403)" d="M638.9 324.3h1.1v2.1h-1.1z"/><path transform="rotate(-155.45 621.4 331.58)" d="M620.9 330.5h1.1v2.1h-1.1z"/><path transform="rotate(-155.45 754.151 336.893)" d="M753.6 335.8h1.1v2.1h-1.1z"/><path transform="rotate(-155.45 740.285 334.84)" d="M739.8 333.8h1.1v2.1h-1.1z"/><path transform="rotate(-155.45 697.618 320.565)" d="M697.1 319.5h1.1v2.1h-1.1z"/><path transform="rotate(-155.45 702.95 327.648)" d="M702.4 326.6h1.1v2.1h-1.1z"/><path transform="rotate(-155.45 714.537 330.496)" d="M714 329.4h1.1v2.1H714z"/><path transform="rotate(-155.45 719.983 328.47)" d="M719.5 327.4h1.1v2.1h-1.1z"/><path transform="rotate(-155.45 653.421 331.835)" d="M652.9 330.8h1.1v2.1h-1.1z"/><path transform="rotate(-155.45 692.385 328.48)" d="M691.9 327.4h1.1v2.1h-1.1z"/><path transform="rotate(-155.45 681.917 330.153)" d="M681.4 329.1h1.1v2.1h-1.1z"/><path transform="rotate(-155.45 678.412 326.147)" d="M677.9 325.1h1.1v2.1h-1.1z"/><path transform="rotate(-155.45 681.823 321.296)" d="M681.3 320.2h1.1v2.1h-1.1z"/><path transform="rotate(-155.45 612.973 339.625)" d="M612.4 338.6h1.1v2.1h-1.1z"/><path transform="rotate(-155.45 661.803 326.425)" d="M661.3 325.4h1.1v2.1h-1.1z"/><path transform="rotate(-155.45 652.92 327.328)" d="M652.4 326.3h1.1v2.1h-1.1z"/><path transform="rotate(-155.45 650.918 322.32)" d="M650.4 321.3h1.1v2.1h-1.1z"/><path transform="rotate(-155.45 745.39 329.342)" d="M744.9 328.3h1.1v2.1h-1.1z"/><path transform="rotate(-155.45 743.087 326.629)" d="M742.6 325.6h1.1v2.1h-1.1z"/><path transform="rotate(-155.45 705.107 321.973)" d="M704.6 320.9h1.1v2.1h-1.1z"/><path transform="rotate(-155.45 711.2 320.595)" d="M710.7 319.5h1.1v2.1h-1.1z"/><path transform="rotate(-155.45 691.35 319.907)" d="M690.8 318.9h1.1v2.1h-1.1z"/><path transform="rotate(-155.45 668.314 324.422)" d="M667.8 323.4h1.1v2.1h-1.1z"/><path transform="rotate(-155.45 615.396 333.897)" d="M614.9 332.8h1.1v2.1h-1.1z"/><path transform="rotate(-155.45 746.746 337.317)" d="M746.2 336.3h1.1v2.1h-1.1z"/><path transform="rotate(-155.45 751.514 330.479)" d="M751 329.4h1.1v2.1H751z"/><path transform="rotate(-155.45 728.068 328.794)" d="M727.5 327.7h1.1v2.1h-1.1z"/><path transform="rotate(-155.45 711.2 323.829)" d="M710.7 322.8h1.1v2.1h-1.1z"/><path transform="rotate(-155.45 717.768 321.913)" d="M717.2 320.9h1.1v2.1h-1.1z"/><path transform="rotate(-155.45 733.566 328.148)" d="M733 327.1h1.1v2.1H733z"/><path transform="rotate(-155.45 737.171 332.555)" d="M736.6 331.5h1.1v2.1h-1.1z"/><path transform="rotate(-155.45 736.573 322.733)" d="M736 321.7h1.1v2.1H736z"/><path transform="rotate(-155.45 693.813 325.287)" d="M693.3 324.2h1.1v2.1h-1.1z"/><path transform="rotate(-155.45 686.35 324.854)" d="M685.8 323.8h1.1v2.1h-1.1z"/><path transform="rotate(-155.45 670.949 327.821)" d="M670.4 326.8h1.1v2.1h-1.1z"/><path transform="rotate(-155.45 617.927 343.326)" d="M617.4 342.3h1.1v2.1h-1.1z"/><path transform="rotate(83.067 726.2 324.384)" d="M725.7 323.3h1.1v2.1h-1.1z"/><path transform="rotate(83.067 727.229 320.45)" d="M726.7 319.4h1.1v2.1h-1.1z"/><path transform="rotate(83.067 720.817 324.821)" d="M720.3 323.8h1.1v2.1h-1.1z"/><path transform="rotate(40.288 646.24 330.653)" d="M645.7 329.6h1.1v2.1h-1.1z"/><path transform="rotate(40.288 650.135 398.989)" d="M649.6 397.9h1.1v2.1h-1.1z"/><path transform="rotate(40.288 634.542 366.934)" d="M634 365.9h1.1v2.1H634z"/><path transform="rotate(40.288 627.973 374.014)" d="M627.4 373h1.1v2.1h-1.1z"/><path d="M659.7 397.2h1.1v2.1h-1.1zM648.4 390.5h1.1v2.1h-1.1zM668.3 390.5h1.1v2.1h-1.1z"/></g><g id="Face_2"><path class="st8" d="M287 397h-20.9c-3.6 0-7.1-1.4-9.7-3.9-35.9-34.9-56.5-50.8-67.8-58-7.4-4.7-11.7-13-11.2-21.7 3.3-58.6-6.9-128.4-6.9-128.4h231.2s-10.1 70.1-6.7 128.9c.5 8.3-3.5 16.4-10.6 20.8-11.1 7-31.7 22.8-68 58.1-2.8 2.7-6.4 4.2-10.3 4.2H285"/><path class="st9" d="M178.2 267.1s24.1-33.4 24.1-84.2l-31.7 2.2 7.6 82zM394.7 267.1s-24.1-33.4-24.1-84.2l31.7 2.2-7.6 82z"/><path class="st10" d="M164 195c0-66.3 54.3-120 121.4-120s121.4 53.7 121.4 120H164z"/><path class="st11" d="M288.5 74.5v323h-22.4c-3.6 0-7.1-1.7-9.7-4.2-35.9-34.9-56.5-50.9-67.8-58.1-7.4-4.7-11.7-13.3-11.2-22 2.5-45.2-2.9-96.7-5.6-118.7H164c0-66 54.5-120 121.6-120h2.9z"/><path class="st12" d="M239.5 195c0-34.5 21.7-62.5 48.4-62.5s48.4 28 48.4 62.5"/><path class="st13" d="M300.3 195h-60.7c-.3 0-.5-.2-.5-.5v-18c0-.3.2-.5.5-.5h61.7c5 0 9 4 9 9 0 5.5-4.5 10-10 10z"/><path class="st14" d="M277.1 195h60.7c.3 0 .5-.2.5-.5v-18c0-.3-.2-.5-.5-.5h-61.7c-5 0-9 4-9 9 0 5.5 4.5 10 10 10z"/><circle cx="276.4" cy="186.6" r="3.4"/><circle cx="260.8" cy="186.6" r="3.4"/><circle cx="246.8" cy="186.6" r="3.4"/><circle cx="291.1" cy="186.6" r="3.4"/><circle cx="305.8" cy="186.6" r="3.4"/><circle cx="319.7" cy="186.6" r="3.4"/><circle cx="333.5" cy="186.6" r="3.4"/><path class="st12" d="M239.5 195s3.6 20-9 27.8c0 0 7.4 4.5 16.3-2.9 8.9-7.3 10.5-25 10.5-25l-17.8.1zM265.1 195s2.9 26.8-7.3 37.1c0 0 6 6 13.3-3.8 7.3-9.8 8.6-33.4 8.6-33.4l-14.6.1zM283.6 195s1.8 16.6-4.5 23c0 0 3.7 3.7 8.2-2.4 4.5-6.1 5.3-20.6 5.3-20.6h-9z"/><path class="st7" d="M352.4 253.4s-22.1-11.9-46.3 0"/><path d="M338.5 257.3c0 5-4 9.1-9 9.1s-9-4.1-9-9.1 4-9 9-9c4.9-.1 9 4 9 9z"/><path class="st7" d="M219.1 252.4s22.1-10.9 46.3 1"/><path d="M250.7 256.4c0 5-4 10-9 10s-9-5-9-10 4-8 9-8c4.9 0 9 3 9 8zM269.8 315.5h-2.1v-1l2.1-.1zM242.3 327.5l-1.1.1-.2-2.1 1.1-.1zM253.6 321.4l-.8 1.9-1-.4.9-1.9zM247.1 325.4l-.8 1.9-1-.4.9-1.9zM246.7 319.9l-1 .5-.9-1.9 1-.5zM304.8 313.6l-.8 2-1-.5.9-1.9zM310.2 320.7l-.9 1.9-1-.4.9-1.9zM321.8 323.6l-.9 1.9-1-.5.9-1.9zM327.2 321.6l-.9 1.9-.9-.5.8-1.9zM260.7 324.9l-.9 1.9-1-.4.9-1.9zM299.6 321.6l-.9 1.9-.9-.5.8-1.9zM289.1 323.2l-.8 1.9-1-.4.9-1.9zM285.6 319.2l-.8 1.9-1-.4.9-1.9zM289 314.4l-.8 1.9-1-.5.9-1.9zM269 319.5l-.8 1.9-1-.4.9-1.9z"/><path transform="rotate(-65.399 257.219 316.148)" d="M256.2 315.6h2.1v1.1h-2.1z"/><path d="M312.3 315.1l-.8 1.9-1-.5.9-1.9zM318.4 313.7l-.8 1.9-1-.5.9-1.9zM298.6 313l-.9 1.9-1-.4.9-2zM275.5 317.5l-.8 1.9-1-.4.9-1.9zM318.4 316.9l-.8 1.9-1-.4.9-1.9z"/><path transform="rotate(-65.399 324.064 315.738)" d="M323 315.2h2.1v1.1H323z"/><path d="M301 318.4l-.8 1.9-1-.5.9-1.9zM293.6 317.9l-.9 1.9-1-.4.9-1.9z"/><path transform="rotate(-65.399 277.249 321.648)" d="M276.2 321.1h2.1v1.1h-2.1z"/><path d="M333.6 318.6l-2.1.3-.1-1.1 2.1-.2zM328.2 319.1l-2 .2-.2-1.1 2.1-.2zM253.6 324l-1.4 1.6-.8-.7 1.4-1.6zM269.8 315.5h-2.1v-1l2.1-.1zM242.3 327.5l-1.1.1-.2-2.1 1.1-.1zM253.6 321.4l-.8 1.9-1-.4.9-1.9zM247.1 325.4l-.8 1.9-1-.4.9-1.9zM246.7 319.9l-1 .5-.9-1.9 1-.5zM304.8 313.6l-.8 2-1-.5.9-1.9zM310.2 320.7l-.9 1.9-1-.4.9-1.9zM321.8 323.6l-.9 1.9-1-.5.9-1.9zM327.2 321.6l-.9 1.9-.9-.5.8-1.9zM260.7 324.9l-.9 1.9-1-.4.9-1.9zM299.6 321.6l-.9 1.9-.9-.5.8-1.9zM289.1 323.2l-.8 1.9-1-.4.9-1.9zM285.6 319.2l-.8 1.9-1-.4.9-1.9zM289 314.4l-.8 1.9-1-.5.9-1.9zM269 319.5l-.8 1.9-1-.4.9-1.9z"/><path transform="rotate(-65.399 257.219 316.148)" d="M256.2 315.6h2.1v1.1h-2.1z"/><path d="M312.3 315.1l-.8 1.9-1-.5.9-1.9zM318.4 313.7l-.8 1.9-1-.5.9-1.9zM298.6 313l-.9 1.9-1-.4.9-2zM275.5 317.5l-.8 1.9-1-.4.9-1.9zM318.4 316.9l-.8 1.9-1-.4.9-1.9z"/><path transform="rotate(-65.399 324.064 315.738)" d="M323 315.2h2.1v1.1H323z"/><path d="M301 318.4l-.8 1.9-1-.5.9-1.9zM293.6 317.9l-.9 1.9-1-.4.9-1.9z"/><path transform="rotate(-65.399 277.249 321.648)" d="M276.2 321.1h2.1v1.1h-2.1z"/><path d="M333.6 318.6l-2.1.3-.1-1.1 2.1-.2zM328.2 319.1l-2 .2-.2-1.1 2.1-.2zM253.6 324l-1.4 1.6-.8-.7 1.4-1.6zM291.8 384.8l-1 1.9-.9-.5 1-1.9zM294.8 383.8l-1 1.9-.9-.5 1-1.9zM296.2 379.7l-1 1.8-.9-.5 1-1.8zM291.9 380.8l-1.1 1.8-.9-.5 1-1.9zM298.6 385.5l-1 1.8-.9-.5 1-1.8zM286.4 385l-1 1.9-.9-.6 1-1.8zM283 393l-1 1.8-.9-.5 1-1.8z"/><path transform="rotate(28.903 281.211 398.435)" d="M280.7 397.4h1.1v2.1h-1.1z"/><path transform="rotate(28.903 286.25 397.82)" d="M285.7 396.8h1.1v2.1h-1.1z"/><path d="M286.7 389.7l-1 1.8-.9-.5 1-1.9zM294.7 389.1l-1.1 1.9-.9-.6 1-1.8zM291.9 393.7l-1.1 1.9-.9-.5 1-1.9zM295.6 393.3l-1 1.9-1-.6 1.1-1.8zM294.9 396.8l-.1.2-.9 1.6-.9-.5.6-1.1.4-.7zM291.8 389.3l-1 1.8-.9-.5 1-1.8zM286.7 393.6l-1 1.8-.9-.5 1-1.8zM282.8 380.9l-1.6 1.4-.7-.8 1.6-1.4zM283.2 377.2l-1.6 1.4-.7-.8 1.6-1.4z"/><path transform="rotate(-41.907 276.67 386.553)" d="M275.6 386h2.1v1.1h-2.1z"/><path transform="rotate(-41.522 279.854 387.546)" d="M278.8 387h2.1v1.1h-2.1z"/><path transform="rotate(-41.522 281.854 383.546)" d="M280.8 383h2.1v1.1h-2.1z"/><path transform="rotate(-41.903 273.893 393.973)" d="M272.8 393.4h2.1v1.1h-2.1z"/><path d="M274 390.3l-1.5 1.4-.8-.8 1.6-1.4z"/><path transform="rotate(-41.522 279.544 391.165)" d="M278.5 390.7h2.1v1.1h-2.1z"/><path d="M317.9 385.6l-1 1.9-1-.5 1.1-1.9zM315 381.3l-1.1 1.9-.9-.5 1-1.9zM312.5 385.8l-1 1.9-1-.6 1-1.8z"/><path transform="rotate(-45.001 307.682 377.54)" d="M307.2 376.5h1.1v2.1h-1.1z"/><path transform="rotate(-45.001 314.022 376.17)" d="M313.5 375.1h1.1v2.1h-1.1z"/><path transform="rotate(-45.001 302.14 377.12)" d="M301.6 376.1h1.1v2.1h-1.1z"/><path d="M309.1 393.8l-1.1 1.8-.9-.5 1-1.8zM312.8 390.5l-1 1.8-1-.5 1-1.8zM317.5 389.8l-.7 1.9-1-.3.7-2zM321.7 384.7l-.7 2-1-.4.7-2zM323.7 386.7l-.7 2-1-.4.7-2zM315.5 395.7l-1 .4-.4-.8-.5-1.1 1-.4.4 1zM309.2 398.1l-.9.5-.8-1.6-.1-.3.9-.5.4.8zM302.2 397.1l-1 1.9-.9-.5.8-1.5.2-.4.5.3zM308.8 381.7l-1.5 1.4-.8-.8 1.6-1.4zM304.5 380.7l-1.6 1.4-.7-.8 1.6-1.4z"/><path transform="rotate(-41.522 303.375 384.084)" d="M302.3 383.6h2.1v1.1h-2.1z"/><path transform="rotate(-41.522 298.983 379.167)" d="M298 378.7h2.1v1.1H298z"/><path transform="rotate(-41.7 298 382.023)" d="M296.9 381.5h2.1v1.1h-2.1z"/><path d="M294.6 376.2l-1.6 1.4-.7-.8 1.6-1.4z"/><path transform="rotate(-41.907 302.72 387.353)" d="M301.7 386.8h2.1v1.1h-2.1z"/><path d="M307.1 388.1l-1.6 1.4-.7-.8 1.6-1.4z"/><path transform="rotate(-41.907 299.95 394.793)" d="M298.9 394.2h2.1v1.1h-2.1z"/><path d="M300.1 391.1l-1.6 1.4-.7-.8 1.6-1.4zM306.8 391.7l-1.6 1.4-.7-.8 1.5-1.4zM274.1 385.6l-1.1 1.9-.9-.5 1-1.9zM268.7 385.8l-1.1 1.9-.9-.6 1-1.8zM264.1 391.4l.2 2.1-1 .1-.3-2.1zM287.6 382.7l-1 .5-.9-1.9 1-.5zM287.1 379.1l-.9.4-.9-1.9.9-.4zM277.6 377.8l-1 .5-.9-1.9 1-.5zM290.2 379.4l-.9.5-.9-1.9.9-.5zM278 381.8l-1 .4-.9-1.9.9-.4zM259.2 391.8l-1 1.8-.9-.5 1-1.8zM261.2 394.8l-1 1.8-.9-.5 1-1.8zM268.9 390.5l-1 1.8-.9-.5 1-1.8zM273.9 382.5l-1 1.8-.9-.5 1-1.8zM270.8 392.2l-1 1.8-.9-.5 1-1.8zM266.8 397.2l-1 1.8-.9-.5 1-1.8zM276.9 389.9l-1 1.9-1-.6 1.1-1.8zM272.5 398.6l-.9.5-.9-1.9.4-.2.6-.3.1.3zM279.8 397.6l-.9.5-.9-1.9.4-.2.5-.3.2.3zM298.2 398.6l-1 .5-.9-1.9.4-.2.6-.3.1.3z"/><path transform="rotate(-41.903 262.833 377.67)" d="M261.8 377.1h2.1v1.1h-2.1z"/><path transform="rotate(-41.7 269.866 377.14)" d="M268.8 376.6h2.1v1.1h-2.1z"/><path transform="rotate(-41.7 271.866 380.141)" d="M270.8 379.6h2.1v1.1h-2.1z"/><path d="M260 387l-1.5 1.4-.7-.8 1.5-1.4zM263.2 388.1l-1.5 1.4-.7-.8 1.5-1.4zM256.2 391.1l-.4.4-1.1 1-.7-.8 1-1 .5-.4z"/><path transform="rotate(-41.703 254.361 387.613)" d="M253.3 387.1h2.1v1.1h-2.1z"/><path d="M188.2 315.5l-1 .3-.6-2 1-.3zM186.8 320.9l-2.1.5-.2-1 2-.5zM181.7 320.5l-2 .5-.3-1 2.1-.5z"/><path transform="rotate(-18.089 222.383 350.111)" d="M221.3 349.6h2.1v1.1h-2.1z"/><path transform="rotate(-18.089 242.543 363.171)" d="M241.5 362.6h2.1v1.1h-2.1z"/><path transform="rotate(-18.089 241.147 372.412)" d="M240.1 371.9h2.1v1.1h-2.1z"/><path d="M241.5 376.3l-1.2.4-.8.3-.4-1 .3-.1 1.7-.6z"/><path transform="rotate(-18.089 232.903 360.811)" d="M231.9 360.3h2.1v1.1h-2.1z"/><path d="M235.7 371.4l-.6.5-.2.2-1.4-1.6.8-.7zM241.2 367.5l-.3 1-2-.7.3-1zM237.9 365.1l-.4 1-1.9-.7.3-1zM231.6 357.4l-2 .6-.3-1 2-.6zM238.8 358.8l-.8.7-1.3-1.7.9-.7z"/><path transform="rotate(-18.089 224.573 354.671)" d="M223.5 354.1h2.1v1.1h-2.1z"/><path d="M231.1 366.5l-1.5.5-.4.1-.3-.8-.1-.2 2-.6zM229.7 362.8l-.5.9-1.8-1 .5-.9zM220.4 356.6l-.5.9-1.9-1 .5-.9zM226.8 347.6l-2 .6-.3-1 2-.7zM253.1 371.4l-.5 1-1.8-1 .5-1z"/><path transform="rotate(-16.391 246.784 373.064)" d="M246.3 372.1h1.1v2.1h-1.1z"/><path transform="rotate(-16.391 245.784 379.062)" d="M245.3 378.1h1.1v2.1h-1.1z"/><path transform="rotate(-16.391 245.784 369.064)" d="M245.3 368.1h1.1v2.1h-1.1z"/><path d="M245.2 376.6l-1.9 1-.5-.9 1.9-1.1zM250.5 380.3l-1.8 1-.5-1 1.8-1zM251.8 384.5l-1.8 1-.5-.9 1.8-1zM250.6 376l-1.8 1-.5-.9 1.8-1.1zM255.6 375l-1.8 1-.5-.9 1.8-1.1zM255.7 378.7l-1.8 1.1-.5-1 1.8-1zM256 381h2v1h-2zM220 347.5l-2 .7-.3-.9-.1-.2.5-.1 1.5-.5zM221.7 353.9l-2 .7-.3-1 2-.7zM184.7 314.4l-1.5 1.4-.7-.7 1.5-1.5zM183.5 308.4l-2 .5-.3-1 2.1-.5zM179.5 301.3l-.5.1-1.5.4-.3-1 1.8-.5.2-.1zM185.5 301.7l-.1 2.1h-1.1l.1-2.1zM191 316.4l-.7 2-1-.3.7-2z"/><path transform="rotate(37.07 177.269 314.503)" d="M176.7 313.5h1.1v2.1h-1.1z"/><path d="M186.1 288.8l-1 .4-.6-2.1 1-.3z"/><path transform="rotate(-15.225 183.652 294.044)" d="M182.6 293.5h2.1v1.1h-2.1z"/><path transform="rotate(-43.448 181.538 288.18)" d="M180.5 287.6h2.1v1.1h-2.1z"/><path d="M181.4 281.8l-2 .6-.3-1.2v-.2l2-.4z"/><path transform="rotate(-15.225 183.884 326.825)" d="M182.8 326.3h2.1v1.1h-2.1z"/><path d="M183.2 275.1v2.1h-1.1l.1-2.1zM188.9 289.7l-.6 2-1-.3.6-2z"/><path transform="rotate(-53.732 190.31 282.485)" d="M189.3 282h2.1v1.1h-2.1z"/><path transform="rotate(-43.473 193.905 330.515)" d="M193.4 329.5h1.1v2.1h-1.1z"/><path d="M196.2 336.4l-1.5 1.4-.7-.8 1.5-1.4z"/><path transform="rotate(-41.522 200.262 336.426)" d="M199.2 335.9h2.1v1.1h-2.1z"/><path d="M191.5 331.5l-.8 2-1-.4.8-1.9zM187.7 326.7l-1.6 1.4-.7-.8 1.6-1.4z"/><path transform="rotate(155.409 177.99 322.634)" d="M177.5 321.6h1.1v2.1h-1.1z"/><path d="M387.1 280.9l-1 .3-.6-2 1-.3zM389.2 274.4l-1.9.6-.1-.1-.2-.7v-.4l.9-.2 1.1-.3z"/><path transform="rotate(-41.903 390.08 279.99)" d="M389 279.5h2.1v1.1H389z"/><path transform="rotate(-41.703 393.922 277.93)" d="M392.9 277.4h2.1v1.1h-2.1z"/><path d="M392.3 286.8l-2 .5-.3-1 2.1-.5zM395.4 294.8l-2 .5-.2-1 2-.5zM389.2 290.9l-.1 2.1H388l.2-2.1zM384.4 276.6l-.7 2-1-.4.6-2zM387.8 285.4l-1.3 1.6-.8-.6 1.3-1.7z"/><path transform="rotate(-16.391 388.055 306.682)" d="M387.6 305.7h1.1v2.1h-1.1z"/><path d="M391 300.9l-2 .6-.3-1.1 2-.5zM396.9 300.6l-1.3.4-.8.2-.2-1.1.9-.2 1.1-.3z"/><path transform="rotate(-14.702 385.255 295.538)" d="M384.3 295h2.1v1.1h-2.1z"/><path transform="rotate(-42.678 391.884 306.58)" d="M390.8 306.1h2.1v1.1h-2.1z"/><path d="M394.2 313.4l-2 .5-.2-1 2-.5zM396.2 310.2l-.3.1-1.8.5-.2-1.1 2-.5zM391.2 317.5l-.1 2.1H390l.1-2.1zM386.1 303.3l-.6 2-1-.4.6-2zM384.1 311.6l-1.3 1.7-.8-.6 1.2-1.7zM388.3 274.5l-1 .5-.3-.8-.5-1.3 1-.4.4 1.1zM394.9 273.4l-1 .4-.9-1.9 1-.4zM198.3 332.5l-1.1.2-.3-2.1 1.1-.1zM196.7 322.4l-.4 2.1-1-.2.4-2.1zM192.4 322.9l-.4 2.1-1-.2.3-2.1zM206.6 335.6l-1 .2-1 .3-.3-1.1 1.9-.4.2-.1.1.7zM204.9 341.7l-2.1.6-.2-1.1 2-.5z"/><path transform="rotate(-43.104 213.776 345.171)" d="M213.3 344.1h1.1v2.1h-1.1z"/><path transform="rotate(-41.522 214.96 351.338)" d="M213.9 350.8h2.1v1.1h-2.1z"/><path d="M222.8 359.8l-.7.5-.9.9-.7-.8.8-.8.8-.6zM211.3 346.2l-.7 2-1-.4.7-2z"/><path transform="rotate(-41.522 206.392 341.674)" d="M205.4 341.2h2.1v1.1h-2.1z"/><path d="M206.6 345.7l-1 .9-.6.5-.7-.8.5-.4 1.1-1zM207.1 336.5l-1 .4-.5-1.1-.3-.8.9-.4.3.6zM218.2 347.2l-.5.1-.6.1-.3-2.1 1-.2.3 1.9zM216.6 337.1l-.4 2-1-.1.3-2.1zM341.1 364.8l-1 .2-.3-2.1 1-.1zM324.9 382.5l-1.1.2-.3-2.1 1.1-.1zM328.8 373.4l-1 .2-.3-2.1 1-.2zM327.8 377.4l-1 .2-.3-2.1 1-.2zM328.2 380.7l-1 1.8-1-.5 1.1-1.8zM332.8 371.6l-1.1.1-.3-2 1.1-.2zM334.8 377.6l-1.1.1-.3-2 1.1-.2zM331 377.7l-1.9.9-.5-.9 1.9-1zM336.3 366.2l-1.1.2-.3-2.1 1.1-.1zM340 371.6l-1.1.1-.3-2 1.1-.2zM336.3 372.3l-1.1.2-.3-2.1 1.1-.2zM338.3 368.3l-1.1.2-.3-2.1 1.1-.2zM323.9 369.6l-1 .2-.4-2.1 1.1-.1zM328 367.3l-1.3 1.7-.8-.7 1.3-1.6zM343.3 368.5l-1.1.2-.3-2.1 1.1-.2zM332.2 367.6l-1.1.2-.3-2.1 1.1-.2zM344.5 361.7l-1.1.2-.3-2.1 1-.1zM337.8 362.4l-1 .2-.3-2.1 1-.2zM359.2 343.8l-.9.6-1.1-1.8.9-.6zM352.7 347.9l-1.1.1-.2-2.1 1.1-.1z"/><path transform="rotate(-33.54 346.712 356.206)" d="M345.7 355.7h2.1v1.1h-2.1z"/><path transform="rotate(-31.889 340.45 356.342)" d="M339.9 355.3h1.1v2.1h-1.1z"/><path transform="rotate(-60.053 345.503 352.634)" d="M345 351.6h1.1v2.1H345z"/><path d="M352.4 350.1l-.9.6-1.1-1.8.9-.6zM354 356.3l-.9.6-1.1-1.8.9-.6zM347 361h2v1h-2zM354.6 359.3l-.3 1-1.2-.4-.8-.3.3-1 1.4.5zM363.4 351.7l-.8.2h-.3l-.3-2.1 1.1-.1.2 1.6zM358.5 353.1l-1 .2-.4-2.1 1.1-.1zM391.8 326.5l-1 .1-.3-2 1-.2zM386 326.6l-1.1.2-.3-2.1 1.1-.2zM366.7 348.7h-.2l-.8.1-.4-2 1-.2h.1l.1.5.2 1.4zM360.1 349.3l-1.1.2-.3-2.1 1.1-.1z"/><path transform="rotate(-31.889 380.45 330.102)" d="M379.9 329.1h1.1v2.1h-1.1z"/><path d="M386.3 331.4l-.9.6-1.1-1.8.9-.6zM374.9 334.8l-1 .1-.2-2.1 1-.1zM379.8 335.6l-1 .1-.3-2.1 1.1-.1z"/><path transform="rotate(-33.54 368.962 343.127)" d="M367.9 342.6h2.1v1.1h-2.1z"/><path d="M376.8 339.5l-1.7 1.2-.6-.9 1.7-1.2z"/><path transform="rotate(-31.889 362.7 343.262)" d="M362.2 342.2h1.1v2.1h-1.1z"/><path d="M368.9 339.6l-.5.9-1.8-1 .5-.9zM374.6 337l-.9.6-1.1-1.8.9-.5zM366 346h2v1h-2zM383.8 319.8l-.4 1-1.9-.7.3-1zM397 319.6l-.3 1-1-.4h-.1l-.9-.3.4-1 .7.2z"/><path d="M395.9 319.7l-.2.5-.2.5-2-.7.4-1 1 .4.8.3zM381.2 325.5l-.4 1-2-.7.4-1z"/><path transform="rotate(-45.001 323.112 373.58)" d="M322.6 372.5h1.1v2.1h-1.1z"/><path transform="rotate(-45.38 317.558 373.145)" d="M317 372.1h1.1v2.1H317z"/><path transform="rotate(-41.907 323.12 378.053)" d="M322.1 377.5h2.1v1.1h-2.1z"/><path transform="rotate(-41.703 318.757 377.054)" d="M317.7 376.5h2.1v1.1h-2.1z"/><path d="M320 379.8l-1.6 1.4-.7-.8 1.5-1.4zM278 381.8l-1 .4-.9-1.9.9-.4zM270 383.8l-1 .4-.9-1.9.9-.4zM264 382.8l-1 .4-.9-1.9.9-.4zM267 380.8l-1 .4-.9-1.9.9-.4z"/></g></svg>