<?xml version="1.0" encoding="utf-8"?>
<!-- Generator: Adobe Illustrator 20.1.0, SVG Export Plug-In . SVG Version: 6.00 Build 0)  -->
<svg version="1.1" xmlns="http://www.w3.org/2000/svg" xmlns:xlink="http://www.w3.org/1999/xlink" x="0px" y="0px"
	 viewBox="0 0 960 560" style="enable-background:new 0 0 960 560;" xml:space="preserve">
<style type="text/css">
	.st0{fill:#BD000A;}
	.st1{fill:none;stroke:#FFFFFF;stroke-width:3;stroke-miterlimit:10;}
	.st2{fill:none;stroke:#ED4C37;stroke-width:3;stroke-miterlimit:10;}
	.st3{fill:none;stroke:#000000;stroke-width:3;stroke-miterlimit:10;}
	.st4{fill:#FFD6B0;}
	.st5{fill:#553117;stroke:#553117;stroke-width:2;stroke-miterlimit:10;}
	.st6{opacity:0.2;stroke:#000000;stroke-width:2;stroke-miterlimit:10;}
	.st7{fill:none;stroke:#000000;stroke-width:2.5;stroke-miterlimit:10;}
	.st8{fill:#F1C2A4;stroke:#F1C2A4;stroke-width:2;stroke-miterlimit:10;}
	.st9{fill:#2E0D05;stroke:#2E0D05;stroke-width:2;stroke-miterlimit:10;}
	.st10{fill:#857F7D;}
	.st11{opacity:0.25;fill:#000105;stroke:#000000;stroke-miterlimit:10;}
	.st12{fill:#9A300B;stroke:#9A300B;stroke-miterlimit:10;}
	.st13{opacity:0.8;fill:#E5E0D7;}
	.st14{fill:#E5E0D7;}
	.st15{fill:#DEA6AF;}
	.st16{fill:none;stroke:#FFFFFF;stroke-width:10;stroke-miterlimit:10;}
	.st17{fill:none;stroke:#ED4C37;stroke-width:10;stroke-miterlimit:10;}
	.st18{fill:none;stroke:#FFFFFF;stroke-width:12;stroke-miterlimit:10;}
	.st19{fill:#FFFFFF;}
</style>
<g id="Faces-background_color">
	<rect x="0.3" y="0.6" class="st0" width="960" height="560"/>
</g>
<g id="_x32_1_logo">
	<line class="st1" x1="880.5" y1="484" x2="880.5" y2="523"/>
	<line class="st1" x1="898.9" y1="503.7" x2="887.9" y2="503.6"/>
	<line class="st2" x1="910.1" y1="488.7" x2="901.9" y2="516.6"/>
	<circle class="st1" cx="892.1" cy="502.6" r="34.5"/>
</g>
<g id="Face_1">
	<path class="st4" d="M772.2,350c-12.4,10.5-29,26.1-51.3,49c-4.4,4.5-10.1,7-16,7h-19.7h0h0.6l-0.3-0.6l14.7-30.8l-14.8,30.5
		L685,406H666c-5.9,0-11.6-2.5-16-7c-24.7-25.4-42.5-41.7-55.2-52.2c-17.5-14.5-27.5-38.1-26.8-62.8c1.6-60.2,0.7-120,0.7-120
		l45.2,93.5L569.5,164l116.2,0.4l114.5,0.4l0.7,0c0,0.6,0,1.3,0,2.2c0.1,13.3,0.4,61.2,1.8,110.5C803.5,306,792.1,333,772.2,350z"/>
	<path class="st5" d="M801.3,269.2l-10.7-0.1c-9.8-0.1-17.5-8.2-17.1-18l2.8-66.2c0,0-22.3-42.2-89.6-5.6c-0.1,0-0.2,0.1-0.3,0.2
		c-67.5-36.9-90,5.5-90,5.5l2.8,66.6c0.4,9.5-7.3,17.5-16.8,17.4l-12.9-0.1l-1.4-124.6c0,0-1.2-34.8,27.6-50.4s66-3.6,88.8-30
		c0,0,10.8,25.2-4.8,36c0.8-0.2,20.7-5.8,27.7-15.8c3.6-5.2-5.5,17.1-8.2,23.5c0,0,84.9-17.9,100.7,26.5L801.3,269.2z"/>
	<path class="st6" d="M688,96.9c-5,1.7-7.6,2.7-7.9,2.7c4.7-3.3,6.9-7.9,7.9-12.7V75.2c-1-6.5-3.3-11.5-3.3-11.5
		c-22.8,26.4-60.1,14.4-88.9,30s-27.7,50.4-27.7,50.4l0.8,77.2v0.2c0,18.9-0.3,40.7-0.9,62.5c-0.7,24.8,9.3,48.3,26.8,62.8
		c12.7,10.5,30.5,26.8,55.2,52.2c4.4,4.5,10.1,7,16,7H685l0.4-0.9l0.1,0.3l0.3,0.6h2.2V96.9z"/>
	<path class="st7" d="M753.4,258.4c0,0-22.1-11.9-46.3,0"/>
	<circle cx="730.4" cy="262.3" r="9"/>
	<path class="st7" d="M620.1,257.4c0,0,22.1-10.9,46.3,1"/>
	<path d="M633.6,261.4c0-5,4-8,9-8c5,0,9,3,9,8s-4,10-9,10C637.6,271.5,633.6,266.4,633.6,261.4L633.6,261.4z"/>
	<rect x="656.2" y="402.5" width="1.1" height="2.1"/>
	<rect x="674.8" y="396" width="1.1" height="2.1"/>
	<rect x="677.1" y="404.1" width="1.1" height="2.1"/>
	<rect x="681.5" y="395.6" width="1.1" height="2.1"/>
	<rect x="765.4" y="354" transform="matrix(0.734 -0.6792 0.6792 0.734 -37.3931 614.6491)" width="1.1" height="2.1"/>
	<rect x="756.8" y="351.3" transform="matrix(0.734 -0.6792 0.6792 0.734 -37.8483 608.0959)" width="1.1" height="2.1"/>
	<rect x="754.3" y="346" transform="matrix(0.734 -0.6792 0.6792 0.734 -34.9313 604.9608)" width="1.1" height="2.1"/>
	<rect x="758.4" y="345.1" transform="matrix(0.734 -0.6792 0.6792 0.734 -33.2086 607.5438)" width="1.1" height="2.1"/>
	<rect x="707.3" y="394.6" width="1.1" height="2.1"/>
	<rect x="754.3" y="361.7" transform="matrix(0.734 -0.6792 0.6792 0.734 -45.5604 609.1209)" width="1.1" height="2.1"/>
	<rect x="761.3" y="359" transform="matrix(0.734 -0.6792 0.6792 0.734 -41.9182 613.158)" width="1.1" height="2.1"/>
	<rect x="760.7" y="350.8" transform="matrix(0.734 -0.6792 0.6792 0.734 -36.4597 610.5536)" width="1.1" height="2.1"/>
	<rect x="746" y="368.4" transform="matrix(0.734 -0.6792 0.6792 0.734 -52.3462 605.3206)" width="1.1" height="2.1"/>
	<rect x="740.9" y="369.6" transform="matrix(0.734 -0.6792 0.6792 0.734 -54.5052 602.141)" width="1.1" height="2.1"/>
	<rect x="750.1" y="360.2" transform="matrix(0.734 -0.6792 0.6792 0.734 -45.6565 605.9004)" width="1.1" height="2.1"/>
	<rect x="752.6" y="356.5" transform="matrix(0.734 -0.6792 0.6792 0.734 -42.4797 606.5639)" width="1.1" height="2.1"/>
	<rect x="736" y="374.9" transform="matrix(0.734 -0.6792 0.6792 0.734 -59.4076 600.2282)" width="1.1" height="2.1"/>
	<rect x="731.7" y="376.5" transform="matrix(0.734 -0.6792 0.6792 0.734 -61.6581 597.702)" width="1.1" height="2.1"/>
	<rect x="734" y="369" transform="matrix(0.734 -0.6792 0.6792 0.734 -55.9203 597.2841)" width="1.1" height="2.1"/>
	<rect x="740.3" y="360.4" transform="matrix(0.734 -0.6792 0.6792 0.734 -48.4261 599.3126)" width="1.1" height="2.1"/>
	<rect x="702.7" y="397.4" width="1.1" height="2.1"/>
	<rect x="700.3" y="404.5" width="1.1" height="2.1"/>
	<rect x="703.5" y="406.1" width="1.1" height="2.1"/>
	<rect x="695.8" y="397.9" width="1.1" height="2.1"/>
	<rect x="667.4" y="401.8" width="1.1" height="2.1"/>
	<rect x="694.3" y="406.1" width="1.1" height="2.1"/>
	<rect x="684.4" y="405" width="1.1" height="2.1"/>
	<rect x="705.2" y="401.3" width="1.1" height="2.1"/>
	<rect x="711.8" y="397" width="1.1" height="2.1"/>
	<rect x="711.6" y="402.4" width="1.1" height="2.1"/>
	<rect x="717.8" y="394.5" width="1.1" height="2.1"/>
	<rect x="717.5" y="399.2" width="1.1" height="2.1"/>
	<rect x="689.8" y="398.2" width="1.1" height="2.1"/>
	<rect x="729.3" y="388" transform="matrix(0.734 -0.6792 0.6792 0.734 -70.1184 599.1551)" width="1.1" height="2.1"/>
	<rect x="724.3" y="380" transform="matrix(0.734 -0.6792 0.6792 0.734 -65.9594 593.6223)" width="1.1" height="2.1"/>
	
		<rect x="574.6" y="294" transform="matrix(0.9981 -6.196430e-02 6.196430e-02 0.9981 -17.1786 36.2048)" width="1.1" height="2.1"/>
	
		<rect x="571.6" y="299.5" transform="matrix(3.312289e-02 0.9995 -0.9995 3.312289e-02 853.5765 -281.1857)" width="1.1" height="2.1"/>
	
		<rect x="577.6" y="306" transform="matrix(3.312289e-02 0.9995 -0.9995 3.312289e-02 865.8898 -280.9005)" width="1.1" height="2.1"/>
	
		<rect x="593.3" y="324.2" transform="matrix(3.312289e-02 0.9995 -0.9995 3.312289e-02 899.2336 -279.0074)" width="1.1" height="2.1"/>
	
		<rect x="661.9" y="320.1" transform="matrix(3.312289e-02 0.9995 -0.9995 3.312289e-02 961.4757 -351.5939)" width="1.1" height="2.1"/>
	
		<rect x="672.9" y="321.2" transform="matrix(3.312289e-02 0.9995 -0.9995 3.312289e-02 973.1033 -361.487)" width="1.1" height="2.1"/>
	
		<rect x="589.4" y="332.7" transform="matrix(3.312289e-02 0.9995 -0.9995 3.312289e-02 903.974 -266.8678)" width="1.1" height="2.1"/>
	
		<rect x="587.5" y="336.1" transform="matrix(3.312289e-02 0.9995 -0.9995 3.312289e-02 905.4732 -261.7674)" width="1.1" height="2.1"/>
	
		<rect x="584.7" y="319.3" transform="matrix(3.312289e-02 0.9995 -0.9995 3.312289e-02 885.9634 -275.2135)" width="1.1" height="2.1"/>
	<rect x="583.5" y="329.5" transform="matrix(0.9043 -0.4269 0.4269 0.9043 -85.2123 280.9673)" width="1.1" height="2.1"/>
	<rect x="589.7" y="327.8" transform="matrix(0.5835 -0.8121 0.8121 0.5835 -21.2402 616.293)" width="1.1" height="2.1"/>
	
		<rect x="583.3" y="315.1" transform="matrix(3.312289e-02 0.9995 -0.9995 3.312289e-02 880.4944 -277.8683)" width="1.1" height="2.1"/>
	<rect x="590.1" y="318.2" transform="matrix(0.936 -0.352 0.352 0.936 -74.5738 228.2986)" width="1.1" height="2.1"/>
	
		<rect x="578.4" y="311" transform="matrix(3.312289e-02 0.9995 -0.9995 3.312289e-02 871.6762 -276.8997)" width="1.1" height="2.1"/>
	
		<rect x="580.4" y="323.7" transform="matrix(3.312289e-02 0.9995 -0.9995 3.312289e-02 886.2042 -266.5997)" width="1.1" height="2.1"/>
	<rect x="580" y="319.9" transform="matrix(0.7071 -0.7071 0.7071 0.7071 -56.9196 504.4739)" width="1.1" height="2.1"/>
	
		<rect x="581.5" y="304.3" transform="matrix(3.312289e-02 0.9995 -0.9995 3.312289e-02 867.959 -286.4381)" width="1.1" height="2.1"/>
	<rect x="801.2" y="272.3" transform="matrix(0.734 -0.6792 0.6792 0.734 27.605 617.2239)" width="1.1" height="2.1"/>
	<rect x="600" y="334.8" transform="matrix(-0.7071 0.7071 -0.7071 -0.7071 1262.6689 148.594)" width="1.1" height="2.1"/>
	<rect x="606.3" y="341.9" width="1.1" height="2.1"/>
	<rect x="793.2" y="272.7" transform="matrix(0.734 -0.6792 0.6792 0.734 25.2065 611.8499)" width="1.1" height="2.1"/>
	<rect x="594.6" y="335" width="1.1" height="2.1"/>
	<rect x="590.9" y="337.5" transform="matrix(0.2184 0.9759 -0.9759 0.2184 792.6871 -312.5442)" width="1.1" height="2.1"/>
	<rect x="595" y="342.6" transform="matrix(0.2184 0.9759 -0.9759 0.2184 800.7777 -312.6036)" width="1.1" height="2.1"/>
	<rect x="596.3" y="338.5" transform="matrix(0.2184 0.9759 -0.9759 0.2184 797.8126 -317.0618)" width="1.1" height="2.1"/>
	<rect x="600.5" y="342.6" transform="matrix(0.2184 0.9759 -0.9759 0.2184 805.0422 -317.9158)" width="1.1" height="2.1"/>
	<rect x="601.8" y="346.2" transform="matrix(-0.2817 0.9595 -0.9595 -0.2817 1105.1434 -132.8145)" width="1.1" height="2.1"/>
	<rect x="606.7" y="347.4" transform="matrix(-0.2817 0.9595 -0.9595 -0.2817 1112.5994 -135.9494)" width="1.1" height="2.1"/>
	<rect x="637.7" y="385" transform="matrix(-0.2817 0.9595 -0.9595 -0.2817 1188.4764 -117.5603)" width="1.1" height="2.1"/>
	
		<rect x="574.9" y="302.4" transform="matrix(3.312289e-02 0.9995 -0.9995 3.312289e-02 859.6404 -281.7787)" width="1.1" height="2.1"/>
	
		<rect x="574.8" y="309" transform="matrix(3.312289e-02 0.9995 -0.9995 3.312289e-02 866.1707 -275.2498)" width="1.1" height="2.1"/>
	<rect x="570.9" y="293.3" transform="matrix(-0.5 -0.866 0.866 -0.5 602.2026 936.4078)" width="1.1" height="2.1"/>
	
		<rect x="571.1" y="286.6" transform="matrix(3.312289e-02 0.9995 -0.9995 3.312289e-02 840.2736 -293.2022)" width="1.1" height="2.1"/>
	
		<rect x="568.7" y="278.8" transform="matrix(3.312289e-02 0.9995 -0.9995 3.312289e-02 830.0695 -298.4028)" width="1.1" height="2.1"/>
	<rect x="574.8" y="281.9" transform="matrix(-0.966 -0.2586 0.2586 -0.966 1057.8457 705.0484)" width="1.1" height="2.1"/>
	<rect x="576.8" y="297.2" transform="matrix(0.866 0.5 -0.5 0.866 226.4618 -248.6893)" width="1.1" height="2.1"/>
	<rect x="580.8" y="289.8" transform="matrix(0.649 0.7608 -0.7608 0.649 425.3488 -340.1501)" width="1.1" height="2.1"/>
	<rect x="782.7" y="332" transform="matrix(0.7129 -0.7013 0.7013 0.7129 -8.6732 644.9102)" width="1.1" height="2.1"/>
	<rect x="784.7" y="330.2" transform="matrix(0.7129 -0.7013 0.7013 0.7129 -6.8625 645.7406)" width="1.1" height="2.1"/>
	<rect x="785.4" y="321.4" transform="matrix(0.7129 -0.7013 0.7013 0.7129 -0.4657 643.709)" width="1.1" height="2.1"/>
	<rect x="788.1" y="297.5" transform="matrix(0.7129 -0.7013 0.7013 0.7129 17.0546 638.7854)" width="1.1" height="2.1"/>
	<rect x="797" y="294.6" transform="matrix(0.7129 -0.7013 0.7013 0.7129 21.6456 644.2035)" width="1.1" height="2.1"/>
	<rect x="800.8" y="293.8" transform="matrix(0.7129 -0.7013 0.7013 0.7129 23.3206 646.567)" width="1.1" height="2.1"/>
	<rect x="790.3" y="307.2" transform="matrix(0.7129 -0.7013 0.7013 0.7129 10.8863 643.0886)" width="1.1" height="2.1"/>
	<rect x="796.6" y="303.4" transform="matrix(0.7129 -0.7013 0.7013 0.7129 15.3167 646.4014)" width="1.1" height="2.1"/>
	<rect x="796.1" y="299.1" transform="matrix(0.7129 -0.7013 0.7013 0.7129 18.185 644.8124)" width="1.1" height="2.1"/>
	<rect x="788.2" y="311" transform="matrix(0.7129 -0.7013 0.7013 0.7129 7.5979 642.6879)" width="1.1" height="2.1"/>
	<rect x="785.9" y="304" transform="matrix(0.7129 -0.7013 0.7013 0.7129 11.8921 639.0642)" width="1.1" height="2.1"/>
	<rect x="788.5" y="317.4" transform="matrix(0.7129 -0.7013 0.7013 0.7129 3.2244 644.7473)" width="1.1" height="2.1"/>
	<rect x="796.5" y="307.4" transform="matrix(0.7129 -0.7013 0.7013 0.7129 12.5344 647.4855)" width="1.1" height="2.1"/>
	<rect x="794" y="310.2" transform="matrix(0.7129 -0.7013 0.7013 0.7129 9.8088 646.5422)" width="1.1" height="2.1"/>
	<rect x="781.5" y="319.7" transform="matrix(0.7129 -0.7013 0.7013 0.7129 -0.379 640.4889)" width="1.1" height="2.1"/>
	<rect x="791.3" y="285.4" transform="matrix(0.7129 -0.7013 0.7013 0.7129 26.456 637.5508)" width="1.1" height="2.1"/>
	<rect x="793.1" y="275.2" transform="matrix(0.7129 -0.7013 0.7013 0.7129 34.0977 635.8564)" width="1.1" height="2.1"/>
	<rect x="795.1" y="289.2" transform="matrix(0.57 -0.8216 0.8216 0.57 103.5956 778.5472)" width="1.1" height="2.1"/>
	<rect x="799.5" y="290.2" transform="matrix(0.57 -0.8216 0.8216 0.57 104.6765 782.5836)" width="1.1" height="2.1"/>
	<rect x="800.5" y="283.8" transform="matrix(0.57 -0.8216 0.8216 0.57 110.3379 780.5936)" width="1.1" height="2.1"/>
	<rect x="796.6" y="285.6" transform="matrix(0.57 -0.8216 0.8216 0.57 107.1842 778.1802)" width="1.1" height="2.1"/>
	<rect x="796.8" y="279.8" transform="matrix(0.57 -0.8216 0.8216 0.57 112.0502 775.8401)" width="1.1" height="2.1"/>
	<rect x="798.6" y="276.4" transform="matrix(0.8967 -0.4426 0.4426 0.8967 -40.2617 382.3336)" width="1.1" height="2.1"/>
	<rect x="796.2" y="272" transform="matrix(0.8967 -0.4426 0.4426 0.8967 -38.5488 380.8047)" width="1.1" height="2.1"/>
	<rect x="618.8" y="354.6" transform="matrix(0.9945 -0.1049 0.1049 0.9945 -33.8999 66.9439)" width="1.1" height="2.1"/>
	<rect x="634.8" y="331.6" transform="matrix(0.9945 -0.1049 0.1049 0.9945 -31.395 68.4952)" width="1.1" height="2.1"/>
	<rect x="623.2" y="335.9" transform="matrix(0.9945 -0.1049 0.1049 0.9945 -31.9077 67.3016)" width="1.1" height="2.1"/>
	
		<rect x="612.4" y="356.2" transform="matrix(0.9954 9.601310e-02 -9.601310e-02 0.9954 37.128 -57.1971)" width="1.1" height="2.1"/>
	<rect x="605.6" y="352.8" transform="matrix(0.9484 -0.3172 0.3172 0.9484 -80.9249 210.5038)" width="1.1" height="2.1"/>
	<rect x="609.1" y="351.1" transform="matrix(0.9833 0.182 -0.182 0.9833 74.2699 -105.0622)" width="1.1" height="2.1"/>
	<rect x="784.5" y="325.8" transform="matrix(0.7129 -0.7013 0.7013 0.7129 -3.8421 644.3621)" width="1.1" height="2.1"/>
	<rect x="789.5" y="321.4" transform="matrix(0.7129 -0.7013 0.7013 0.7129 0.6788 646.5717)" width="1.1" height="2.1"/>
	<rect x="780.6" y="334.9" transform="matrix(0.7129 -0.7013 0.7013 0.7129 -11.349 644.2232)" width="1.1" height="2.1"/>
	<rect x="775.5" y="339.3" transform="matrix(0.7129 -0.7013 0.7013 0.7129 -15.8448 641.9009)" width="1.1" height="2.1"/>
	<rect x="771.3" y="346.4" transform="matrix(0.7129 -0.7013 0.7013 0.7129 -22.0241 641.0259)" width="1.1" height="2.1"/>
	<rect x="769.6" y="339.8" transform="matrix(0.7129 -0.7013 0.7013 0.7129 -17.9352 637.8943)" width="1.1" height="2.1"/>
	<rect x="779.4" y="328" transform="matrix(0.7129 -0.7013 0.7013 0.7129 -6.8014 641.4398)" width="1.1" height="2.1"/>
	<rect x="771.3" y="330" transform="matrix(0.7129 -0.7013 0.7013 0.7129 -10.571 636.3262)" width="1.1" height="2.1"/>
	<rect x="763.1" y="345.9" transform="matrix(0.734 -0.6792 0.6792 0.734 -32.499 610.8979)" width="1.1" height="2.1"/>
	<rect x="719.4" y="386" transform="matrix(0.734 -0.6792 0.6792 0.734 -71.3373 591.9188)" width="1.1" height="2.1"/>
	<rect x="629.2" y="327.4" transform="matrix(-0.9096 -0.4155 0.4155 -0.9096 1065.9974 888.8076)" width="1.1" height="2.1"/>
	<rect x="645.9" y="327.3" transform="matrix(-0.9096 -0.4155 0.4155 -0.9096 1097.9646 895.5619)" width="1.1" height="2.1"/>
	<rect x="639.4" y="331.3" transform="matrix(-0.9096 -0.4155 0.4155 -0.9096 1083.8674 900.5101)" width="1.1" height="2.1"/>
	<rect x="629.3" y="335.9" transform="matrix(-0.9096 -0.4155 0.4155 -0.9096 1062.6189 905.211)" width="1.1" height="2.1"/>
	<rect x="638.9" y="324.3" transform="matrix(0.9116 -0.411 0.411 0.9116 -77.228 291.596)" width="1.1" height="2.1"/>
	<rect x="620.9" y="330.5" transform="matrix(-0.9096 -0.4155 0.4155 -0.9096 1048.8551 891.3766)" width="1.1" height="2.1"/>
	<rect x="654.6" y="390.2" transform="matrix(0.7628 0.6466 -0.6466 0.7628 408.3736 -330.8337)" width="1.1" height="2.1"/>
	<rect x="652.8" y="385.2" transform="matrix(0.7628 0.6466 -0.6466 0.7628 404.7444 -330.8604)" width="1.1" height="2.1"/>
	<rect x="638" y="378.5" transform="matrix(0.7628 0.6466 -0.6466 0.7628 396.9287 -322.8625)" width="1.1" height="2.1"/>
	<rect x="649.6" y="376.3" transform="matrix(0.7628 0.6466 -0.6466 0.7628 398.2173 -330.9176)" width="1.1" height="2.1"/>
	<rect x="652.6" y="378.3" transform="matrix(0.7628 0.6466 -0.6466 0.7628 400.2102 -332.3648)" width="1.1" height="2.1"/>
	<rect x="753.6" y="335.8" transform="matrix(-0.9096 -0.4155 0.4155 -0.9096 1300.1479 956.6812)" width="1.1" height="2.1"/>
	<rect x="739.8" y="333.8" transform="matrix(-0.9096 -0.4155 0.4155 -0.9096 1274.5225 946.9985)" width="1.1" height="2.1"/>
	<rect x="697.1" y="319.5" transform="matrix(-0.9096 -0.4155 0.4155 -0.9096 1198.9771 902.011)" width="1.1" height="2.1"/>
	<rect x="702.4" y="326.6" transform="matrix(-0.9096 -0.4155 0.4155 -0.9096 1206.2161 917.7527)" width="1.1" height="2.1"/>
	<rect x="714" y="329.4" transform="matrix(-0.9096 -0.4155 0.4155 -0.9096 1227.1586 928.0053)" width="1.1" height="2.1"/>
	<rect x="719.5" y="327.4" transform="matrix(-0.9096 -0.4155 0.4155 -0.9096 1238.4004 926.4011)" width="1.1" height="2.1"/>
	<rect x="652.9" y="330.8" transform="matrix(-0.9096 -0.4155 0.4155 -0.9096 1109.896 905.1691)" width="1.1" height="2.1"/>
	<rect x="691.9" y="327.4" transform="matrix(-0.9096 -0.4155 0.4155 -0.9096 1185.6958 914.9498)" width="1.1" height="2.1"/>
	<rect x="681.4" y="329.1" transform="matrix(-0.9096 -0.4155 0.4155 -0.9096 1165.0107 913.7975)" width="1.1" height="2.1"/>
	<rect x="677.9" y="325.1" transform="matrix(-0.9096 -0.4155 0.4155 -0.9096 1159.9814 904.6906)" width="1.1" height="2.1"/>
	<rect x="681.3" y="320.2" transform="matrix(-0.9096 -0.4155 0.4155 -0.9096 1168.5112 896.8449)" width="1.1" height="2.1"/>
	<rect x="612.4" y="338.6" transform="matrix(-0.9096 -0.4155 0.4155 -0.9096 1029.4188 903.239)" width="1.1" height="2.1"/>
	<rect x="661.3" y="325.4" transform="matrix(-0.9096 -0.4155 0.4155 -0.9096 1128.1505 898.3199)" width="1.1" height="2.1"/>
	<rect x="652.4" y="326.3" transform="matrix(-0.9096 -0.4155 0.4155 -0.9096 1110.8125 896.3544)" width="1.1" height="2.1"/>
	<rect x="650.4" y="321.3" transform="matrix(-0.9096 -0.4155 0.4155 -0.9096 1109.0682 885.9592)" width="1.1" height="2.1"/>
	<rect x="744.9" y="328.3" transform="matrix(-0.9096 -0.4155 0.4155 -0.9096 1286.5551 938.6204)" width="1.1" height="2.1"/>
	<rect x="742.6" y="325.6" transform="matrix(-0.9096 -0.4155 0.4155 -0.9096 1283.2849 932.4829)" width="1.1" height="2.1"/>
	<rect x="704.6" y="320.9" transform="matrix(-0.9096 -0.4155 0.4155 -0.9096 1212.6932 907.812)" width="1.1" height="2.1"/>
	<rect x="710.7" y="319.5" transform="matrix(-0.9096 -0.4155 0.4155 -0.9096 1224.9015 907.7117)" width="1.1" height="2.1"/>
	<rect x="690.8" y="318.9" transform="matrix(-0.9096 -0.4155 0.4155 -0.9096 1187.28 898.1502)" width="1.1" height="2.1"/>
	<rect x="667.8" y="323.4" transform="matrix(-0.9096 -0.4155 0.4155 -0.9096 1141.4147 897.1999)" width="1.1" height="2.1"/>
	<rect x="614.9" y="332.8" transform="matrix(-0.9096 -0.4155 0.4155 -0.9096 1036.4263 893.3062)" width="1.1" height="2.1"/>
	<rect x="746.2" y="336.3" transform="matrix(-0.9096 -0.4155 0.4155 -0.9096 1285.8315 954.4136)" width="1.1" height="2.1"/>
	<rect x="751" y="329.4" transform="matrix(-0.9096 -0.4155 0.4155 -0.9096 1297.7778 943.3361)" width="1.1" height="2.1"/>
	<rect x="727.5" y="327.7" transform="matrix(-0.9096 -0.4155 0.4155 -0.9096 1253.7046 930.3781)" width="1.1" height="2.1"/>
	<rect x="710.7" y="322.8" transform="matrix(-0.9096 -0.4155 0.4155 -0.9096 1223.5577 913.8871)" width="1.1" height="2.1"/>
	<rect x="717.2" y="320.9" transform="matrix(-0.9096 -0.4155 0.4155 -0.9096 1236.8953 912.9576)" width="1.1" height="2.1"/>
	<rect x="733" y="327.1" transform="matrix(-0.9096 -0.4155 0.4155 -0.9096 1264.4717 931.4274)" width="1.1" height="2.1"/>
	<rect x="736.6" y="331.5" transform="matrix(-0.9096 -0.4155 0.4155 -0.9096 1269.526 941.3422)" width="1.1" height="2.1"/>
	<rect x="736" y="321.7" transform="matrix(-0.9096 -0.4155 0.4155 -0.9096 1272.4647 922.3381)" width="1.1" height="2.1"/>
	<rect x="693.3" y="324.2" transform="matrix(-0.9096 -0.4155 0.4155 -0.9096 1189.7493 909.4479)" width="1.1" height="2.1"/>
	<rect x="685.8" y="323.8" transform="matrix(-0.9096 -0.4155 0.4155 -0.9096 1175.6787 905.5192)" width="1.1" height="2.1"/>
	<rect x="670.4" y="326.8" transform="matrix(-0.9096 -0.4155 0.4155 -0.9096 1145.0341 904.7868)" width="1.1" height="2.1"/>
	<rect x="617.4" y="342.3" transform="matrix(-0.9096 -0.4155 0.4155 -0.9096 1037.3413 912.3649)" width="1.1" height="2.1"/>
	<rect x="622.1" y="359.7" transform="matrix(0.1207 0.9927 -0.9927 0.1207 905.5385 -300.901)" width="1.1" height="2.1"/>
	<rect x="616.7" y="360.1" transform="matrix(0.1207 0.9927 -0.9927 0.1207 901.2399 -295.1738)" width="1.1" height="2.1"/>
	<rect x="725.7" y="323.3" transform="matrix(0.1207 0.9927 -0.9927 0.1207 960.5632 -435.6672)" width="1.1" height="2.1"/>
	<rect x="726.7" y="319.4" transform="matrix(0.1207 0.9927 -0.9927 0.1207 957.563 -440.1485)" width="1.1" height="2.1"/>
	<rect x="720.3" y="323.8" transform="matrix(0.1207 0.9927 -0.9927 0.1207 956.2646 -429.9401)" width="1.1" height="2.1"/>
	<rect x="643.9" y="382.4" transform="matrix(0.1207 0.9927 -0.9927 0.1207 947.2579 -302.577)" width="1.1" height="2.1"/>
	<rect x="625.3" y="365.3" transform="matrix(-0.9548 0.2972 -0.2972 -0.9548 1332.3467 530.048)" width="1.1" height="2.1"/>
	<rect x="620.6" y="365.5" transform="matrix(0.4618 -0.887 0.887 0.4618 9.1987 748.2497)" width="1.1" height="2.1"/>
	<rect x="733.8" y="382.3" transform="matrix(-0.9096 -0.4155 0.4155 -0.9096 1242.928 1037.1624)" width="1.1" height="2.1"/>
	<rect x="633.1" y="375.9" transform="matrix(0.7628 0.6466 -0.6466 0.7628 394.0511 -320.3252)" width="1.1" height="2.1"/>
	<rect x="640.5" y="370" transform="matrix(0.7628 0.6466 -0.6466 0.7628 391.9806 -326.525)" width="1.1" height="2.1"/>
	<rect x="645.7" y="329.6" transform="matrix(0.7628 0.6466 -0.6466 0.7628 367.0885 -339.4274)" width="1.1" height="2.1"/>
	
		<rect x="661.9" y="320.1" transform="matrix(3.312289e-02 0.9995 -0.9995 3.312289e-02 961.4757 -351.5939)" width="1.1" height="2.1"/>
	
		<rect x="672.9" y="321.2" transform="matrix(3.312289e-02 0.9995 -0.9995 3.312289e-02 973.1033 -361.487)" width="1.1" height="2.1"/>
	<rect x="634.8" y="331.6" transform="matrix(0.9945 -0.1049 0.1049 0.9945 -31.395 68.4952)" width="1.1" height="2.1"/>
	<rect x="623.2" y="335.9" transform="matrix(0.9945 -0.1049 0.1049 0.9945 -31.9077 67.3016)" width="1.1" height="2.1"/>
	<rect x="629.2" y="327.4" transform="matrix(-0.9096 -0.4155 0.4155 -0.9096 1065.9974 888.8076)" width="1.1" height="2.1"/>
	<rect x="645.9" y="327.3" transform="matrix(-0.9096 -0.4155 0.4155 -0.9096 1097.9646 895.5619)" width="1.1" height="2.1"/>
	<rect x="639.4" y="331.3" transform="matrix(-0.9096 -0.4155 0.4155 -0.9096 1083.8674 900.5101)" width="1.1" height="2.1"/>
	<rect x="629.3" y="335.9" transform="matrix(-0.9096 -0.4155 0.4155 -0.9096 1062.6189 905.211)" width="1.1" height="2.1"/>
	<rect x="638.9" y="324.3" transform="matrix(0.9116 -0.411 0.411 0.9116 -77.228 291.596)" width="1.1" height="2.1"/>
	<rect x="620.9" y="330.5" transform="matrix(-0.9096 -0.4155 0.4155 -0.9096 1048.8551 891.3766)" width="1.1" height="2.1"/>
	<rect x="753.6" y="335.8" transform="matrix(-0.9096 -0.4155 0.4155 -0.9096 1300.1479 956.6812)" width="1.1" height="2.1"/>
	<rect x="739.8" y="333.8" transform="matrix(-0.9096 -0.4155 0.4155 -0.9096 1274.5225 946.9985)" width="1.1" height="2.1"/>
	<rect x="697.1" y="319.5" transform="matrix(-0.9096 -0.4155 0.4155 -0.9096 1198.9771 902.011)" width="1.1" height="2.1"/>
	<rect x="702.4" y="326.6" transform="matrix(-0.9096 -0.4155 0.4155 -0.9096 1206.2161 917.7527)" width="1.1" height="2.1"/>
	<rect x="714" y="329.4" transform="matrix(-0.9096 -0.4155 0.4155 -0.9096 1227.1586 928.0053)" width="1.1" height="2.1"/>
	<rect x="719.5" y="327.4" transform="matrix(-0.9096 -0.4155 0.4155 -0.9096 1238.4004 926.4011)" width="1.1" height="2.1"/>
	<rect x="652.9" y="330.8" transform="matrix(-0.9096 -0.4155 0.4155 -0.9096 1109.896 905.1691)" width="1.1" height="2.1"/>
	<rect x="691.9" y="327.4" transform="matrix(-0.9096 -0.4155 0.4155 -0.9096 1185.6958 914.9498)" width="1.1" height="2.1"/>
	<rect x="681.4" y="329.1" transform="matrix(-0.9096 -0.4155 0.4155 -0.9096 1165.0107 913.7975)" width="1.1" height="2.1"/>
	<rect x="677.9" y="325.1" transform="matrix(-0.9096 -0.4155 0.4155 -0.9096 1159.9814 904.6906)" width="1.1" height="2.1"/>
	<rect x="681.3" y="320.2" transform="matrix(-0.9096 -0.4155 0.4155 -0.9096 1168.5112 896.8449)" width="1.1" height="2.1"/>
	<rect x="612.4" y="338.6" transform="matrix(-0.9096 -0.4155 0.4155 -0.9096 1029.4188 903.239)" width="1.1" height="2.1"/>
	<rect x="661.3" y="325.4" transform="matrix(-0.9096 -0.4155 0.4155 -0.9096 1128.1505 898.3199)" width="1.1" height="2.1"/>
	<rect x="652.4" y="326.3" transform="matrix(-0.9096 -0.4155 0.4155 -0.9096 1110.8125 896.3544)" width="1.1" height="2.1"/>
	<rect x="650.4" y="321.3" transform="matrix(-0.9096 -0.4155 0.4155 -0.9096 1109.0682 885.9592)" width="1.1" height="2.1"/>
	<rect x="744.9" y="328.3" transform="matrix(-0.9096 -0.4155 0.4155 -0.9096 1286.5551 938.6204)" width="1.1" height="2.1"/>
	<rect x="742.6" y="325.6" transform="matrix(-0.9096 -0.4155 0.4155 -0.9096 1283.2849 932.4829)" width="1.1" height="2.1"/>
	<rect x="704.6" y="320.9" transform="matrix(-0.9096 -0.4155 0.4155 -0.9096 1212.6932 907.812)" width="1.1" height="2.1"/>
	<rect x="710.7" y="319.5" transform="matrix(-0.9096 -0.4155 0.4155 -0.9096 1224.9015 907.7117)" width="1.1" height="2.1"/>
	<rect x="690.8" y="318.9" transform="matrix(-0.9096 -0.4155 0.4155 -0.9096 1187.28 898.1502)" width="1.1" height="2.1"/>
	<rect x="667.8" y="323.4" transform="matrix(-0.9096 -0.4155 0.4155 -0.9096 1141.4147 897.1999)" width="1.1" height="2.1"/>
	<rect x="614.9" y="332.8" transform="matrix(-0.9096 -0.4155 0.4155 -0.9096 1036.4263 893.3062)" width="1.1" height="2.1"/>
	<rect x="746.2" y="336.3" transform="matrix(-0.9096 -0.4155 0.4155 -0.9096 1285.8315 954.4136)" width="1.1" height="2.1"/>
	<rect x="751" y="329.4" transform="matrix(-0.9096 -0.4155 0.4155 -0.9096 1297.7778 943.3361)" width="1.1" height="2.1"/>
	<rect x="727.5" y="327.7" transform="matrix(-0.9096 -0.4155 0.4155 -0.9096 1253.7046 930.3781)" width="1.1" height="2.1"/>
	<rect x="710.7" y="322.8" transform="matrix(-0.9096 -0.4155 0.4155 -0.9096 1223.5577 913.8871)" width="1.1" height="2.1"/>
	<rect x="717.2" y="320.9" transform="matrix(-0.9096 -0.4155 0.4155 -0.9096 1236.8953 912.9576)" width="1.1" height="2.1"/>
	<rect x="733" y="327.1" transform="matrix(-0.9096 -0.4155 0.4155 -0.9096 1264.4717 931.4274)" width="1.1" height="2.1"/>
	<rect x="736.6" y="331.5" transform="matrix(-0.9096 -0.4155 0.4155 -0.9096 1269.526 941.3422)" width="1.1" height="2.1"/>
	<rect x="736" y="321.7" transform="matrix(-0.9096 -0.4155 0.4155 -0.9096 1272.4647 922.3381)" width="1.1" height="2.1"/>
	<rect x="693.3" y="324.2" transform="matrix(-0.9096 -0.4155 0.4155 -0.9096 1189.7493 909.4479)" width="1.1" height="2.1"/>
	<rect x="685.8" y="323.8" transform="matrix(-0.9096 -0.4155 0.4155 -0.9096 1175.6787 905.5192)" width="1.1" height="2.1"/>
	<rect x="670.4" y="326.8" transform="matrix(-0.9096 -0.4155 0.4155 -0.9096 1145.0341 904.7868)" width="1.1" height="2.1"/>
	<rect x="617.4" y="342.3" transform="matrix(-0.9096 -0.4155 0.4155 -0.9096 1037.3413 912.3649)" width="1.1" height="2.1"/>
	<rect x="725.7" y="323.3" transform="matrix(0.1207 0.9927 -0.9927 0.1207 960.5632 -435.6672)" width="1.1" height="2.1"/>
	<rect x="726.7" y="319.4" transform="matrix(0.1207 0.9927 -0.9927 0.1207 957.563 -440.1485)" width="1.1" height="2.1"/>
	<rect x="720.3" y="323.8" transform="matrix(0.1207 0.9927 -0.9927 0.1207 956.2646 -429.9401)" width="1.1" height="2.1"/>
	<rect x="645.7" y="329.6" transform="matrix(0.7628 0.6466 -0.6466 0.7628 367.0885 -339.4274)" width="1.1" height="2.1"/>
	<rect x="649.6" y="397.9" transform="matrix(0.7628 0.6466 -0.6466 0.7628 412.1982 -325.7373)" width="1.1" height="2.1"/>
	<rect x="634" y="365.9" transform="matrix(0.7628 0.6466 -0.6466 0.7628 387.7728 -323.2581)" width="1.1" height="2.1"/>
	<rect x="627.4" y="373" transform="matrix(0.7628 0.6466 -0.6466 0.7628 390.7925 -317.3314)" width="1.1" height="2.1"/>
	<rect x="659.7" y="397.2" width="1.1" height="2.1"/>
	<rect x="648.4" y="390.5" width="1.1" height="2.1"/>
	<rect x="668.3" y="390.5" width="1.1" height="2.1"/>
</g>
<g id="Face_2">
	<path class="st8" d="M287,397h-20.9c-3.6,0-7.1-1.4-9.7-3.9c-35.9-34.9-56.5-50.8-67.8-58c-7.4-4.7-11.7-13-11.2-21.7
		c3.3-58.6-6.9-128.4-6.9-128.4h231.2c0,0-10.1,70.1-6.7,128.9c0.5,8.3-3.5,16.4-10.6,20.8c-11.1,7-31.7,22.8-68,58.1
		c-2.8,2.7-6.4,4.2-10.3,4.2H285"/>
	<path class="st9" d="M178.2,267.1c0,0,24.1-33.4,24.1-84.2l-31.7,2.2L178.2,267.1z"/>
	<path class="st9" d="M394.7,267.1c0,0-24.1-33.4-24.1-84.2l31.7,2.2L394.7,267.1z"/>
	<path class="st10" d="M164,195c0-66.3,54.3-120,121.4-120s121.4,53.7,121.4,120H164z"/>
	<path class="st11" d="M288.5,74.5v323h-22.4c-3.6,0-7.1-1.7-9.7-4.2c-35.9-34.9-56.5-50.9-67.8-58.1c-7.4-4.7-11.7-13.3-11.2-22
		c2.5-45.2-2.9-96.7-5.6-118.7H164c0-66,54.5-120,121.6-120C286.5,74.5,287.5,74.5,288.5,74.5z"/>
	<path class="st12" d="M239.5,195c0-34.5,21.7-62.5,48.4-62.5s48.4,28,48.4,62.5"/>
	<path class="st13" d="M300.3,195h-60.7c-0.3,0-0.5-0.2-0.5-0.5v-18c0-0.3,0.2-0.5,0.5-0.5h61.7c5,0,9,4,9,9v0
		C310.3,190.5,305.8,195,300.3,195z"/>
	<path class="st14" d="M277.1,195h60.7c0.3,0,0.5-0.2,0.5-0.5v-18c0-0.3-0.2-0.5-0.5-0.5h-61.7c-5,0-9,4-9,9v0
		C267.1,190.5,271.6,195,277.1,195z"/>
	<circle cx="276.4" cy="186.6" r="3.4"/>
	<circle cx="260.8" cy="186.6" r="3.4"/>
	<circle cx="246.8" cy="186.6" r="3.4"/>
	<circle cx="291.1" cy="186.6" r="3.4"/>
	<circle cx="305.8" cy="186.6" r="3.4"/>
	<circle cx="319.7" cy="186.6" r="3.4"/>
	<circle cx="333.5" cy="186.6" r="3.4"/>
	<path class="st12" d="M239.5,195c0,0,3.6,20-9,27.8c0,0,7.4,4.5,16.3-2.9c8.9-7.3,10.5-25,10.5-25L239.5,195z"/>
	<path class="st12" d="M265.1,195c0,0,2.9,26.8-7.3,37.1c0,0,6,6,13.3-3.8c7.3-9.8,8.6-33.4,8.6-33.4L265.1,195z"/>
	<path class="st12" d="M283.6,195c0,0,1.8,16.6-4.5,23c0,0,3.7,3.7,8.2-2.4c4.5-6.1,5.3-20.6,5.3-20.6L283.6,195z"/>
	<path class="st7" d="M352.4,253.4c0,0-22.1-11.9-46.3,0"/>
	<path d="M338.5,257.3c0,5-4,9.1-9,9.1c-5,0-9-4.1-9-9.1c0-5,4-9,9-9C334.4,248.2,338.5,252.3,338.5,257.3z"/>
	<path class="st7" d="M219.1,252.4c0,0,22.1-10.9,46.3,1"/>
	<path d="M250.7,256.4c0,5-4,10-9,10c-5,0-9-5-9-10c0-5,4-8,9-8C246.6,248.4,250.7,251.4,250.7,256.4z"/>
	<polygon points="269.8,315.5 267.7,315.5 267.7,314.5 269.8,314.4 	"/>
	<polygon points="242.3,327.5 241.2,327.6 241,325.5 242.1,325.4 	"/>
	<polygon points="253.6,321.4 252.8,323.3 251.8,322.9 252.7,321 	"/>
	<polygon points="247.1,325.4 246.3,327.3 245.3,326.9 246.2,325 	"/>
	<polygon points="246.7,319.9 245.7,320.4 244.8,318.5 245.8,318 	"/>
	<polygon points="304.8,313.6 304,315.6 303,315.1 303.9,313.2 	"/>
	<polygon points="310.2,320.7 309.3,322.6 308.3,322.2 309.2,320.3 	"/>
	<polygon points="321.8,323.6 320.9,325.5 319.9,325 320.8,323.1 	"/>
	<polygon points="327.2,321.6 326.3,323.5 325.4,323 326.2,321.1 	"/>
	<polygon points="260.7,324.9 259.8,326.8 258.8,326.4 259.7,324.5 	"/>
	<polygon points="299.6,321.6 298.7,323.5 297.8,323 298.6,321.1 	"/>
	<polygon points="289.1,323.2 288.3,325.1 287.3,324.7 288.2,322.8 	"/>
	<polygon points="285.6,319.2 284.8,321.1 283.8,320.7 284.7,318.8 	"/>
	<polygon points="289,314.4 288.2,316.3 287.2,315.8 288.1,313.9 	"/>
	<polygon points="269,319.5 268.2,321.4 267.2,321 268.1,319.1 	"/>
	<rect x="256.2" y="315.6" transform="matrix(0.4163 -0.9092 0.9092 0.4163 -137.303 418.3988)" width="2.1" height="1.1"/>
	<polygon points="312.3,315.1 311.5,317 310.5,316.5 311.4,314.6 	"/>
	<polygon points="318.4,313.7 317.6,315.6 316.6,315.1 317.5,313.2 	"/>
	<polygon points="298.6,313 297.7,314.9 296.7,314.5 297.6,312.5 	"/>
	<polygon points="275.5,317.5 274.7,319.4 273.7,319 274.6,317.1 	"/>
	<polygon points="318.4,316.9 317.6,318.8 316.6,318.4 317.5,316.5 	"/>
	<rect x="323" y="315.2" transform="matrix(0.4163 -0.9092 0.9092 0.4163 -97.9131 478.9356)" width="2.1" height="1.1"/>
	<polygon points="301,318.4 300.2,320.3 299.2,319.8 300.1,317.9 	"/>
	<polygon points="293.6,317.9 292.7,319.8 291.7,319.4 292.6,317.5 	"/>
	<rect x="276.2" y="321.1" transform="matrix(0.4163 -0.9092 0.9092 0.4163 -130.6125 439.8206)" width="2.1" height="1.1"/>
	<polygon points="333.6,318.6 331.5,318.9 331.4,317.8 333.5,317.6 	"/>
	<polygon points="328.2,319.1 326.2,319.3 326,318.2 328.1,318 	"/>
	<polygon points="253.6,324 252.2,325.6 251.4,324.9 252.8,323.3 	"/>
	<polygon points="269.8,315.5 267.7,315.5 267.7,314.5 269.8,314.4 	"/>
	<polygon points="242.3,327.5 241.2,327.6 241,325.5 242.1,325.4 	"/>
	<polygon points="253.6,321.4 252.8,323.3 251.8,322.9 252.7,321 	"/>
	<polygon points="247.1,325.4 246.3,327.3 245.3,326.9 246.2,325 	"/>
	<polygon points="246.7,319.9 245.7,320.4 244.8,318.5 245.8,318 	"/>
	<polygon points="304.8,313.6 304,315.6 303,315.1 303.9,313.2 	"/>
	<polygon points="310.2,320.7 309.3,322.6 308.3,322.2 309.2,320.3 	"/>
	<polygon points="321.8,323.6 320.9,325.5 319.9,325 320.8,323.1 	"/>
	<polygon points="327.2,321.6 326.3,323.5 325.4,323 326.2,321.1 	"/>
	<polygon points="260.7,324.9 259.8,326.8 258.8,326.4 259.7,324.5 	"/>
	<polygon points="299.6,321.6 298.7,323.5 297.8,323 298.6,321.1 	"/>
	<polygon points="289.1,323.2 288.3,325.1 287.3,324.7 288.2,322.8 	"/>
	<polygon points="285.6,319.2 284.8,321.1 283.8,320.7 284.7,318.8 	"/>
	<polygon points="289,314.4 288.2,316.3 287.2,315.8 288.1,313.9 	"/>
	<polygon points="269,319.5 268.2,321.4 267.2,321 268.1,319.1 	"/>
	<rect x="256.2" y="315.6" transform="matrix(0.4163 -0.9092 0.9092 0.4163 -137.303 418.3988)" width="2.1" height="1.1"/>
	<polygon points="312.3,315.1 311.5,317 310.5,316.5 311.4,314.6 	"/>
	<polygon points="318.4,313.7 317.6,315.6 316.6,315.1 317.5,313.2 	"/>
	<polygon points="298.6,313 297.7,314.9 296.7,314.5 297.6,312.5 	"/>
	<polygon points="275.5,317.5 274.7,319.4 273.7,319 274.6,317.1 	"/>
	<polygon points="318.4,316.9 317.6,318.8 316.6,318.4 317.5,316.5 	"/>
	<rect x="323" y="315.2" transform="matrix(0.4163 -0.9092 0.9092 0.4163 -97.9131 478.9356)" width="2.1" height="1.1"/>
	<polygon points="301,318.4 300.2,320.3 299.2,319.8 300.1,317.9 	"/>
	<polygon points="293.6,317.9 292.7,319.8 291.7,319.4 292.6,317.5 	"/>
	<rect x="276.2" y="321.1" transform="matrix(0.4163 -0.9092 0.9092 0.4163 -130.6125 439.8206)" width="2.1" height="1.1"/>
	<polygon points="333.6,318.6 331.5,318.9 331.4,317.8 333.5,317.6 	"/>
	<polygon points="328.2,319.1 326.2,319.3 326,318.2 328.1,318 	"/>
	<polygon points="253.6,324 252.2,325.6 251.4,324.9 252.8,323.3 	"/>
	<polygon points="291.8,384.8 290.8,386.7 289.9,386.2 290.9,384.3 	"/>
	<polygon points="294.8,383.8 293.8,385.7 292.9,385.2 293.9,383.3 	"/>
	<polygon points="296.2,379.7 295.2,381.5 294.3,381 295.3,379.2 	"/>
	<polygon points="291.9,380.8 290.8,382.6 289.9,382.1 290.9,380.2 	"/>
	<polygon points="298.6,385.5 297.6,387.3 296.7,386.8 297.7,385 	"/>
	<polygon points="286.4,385 285.4,386.9 284.5,386.3 285.5,384.5 	"/>
	<polygon points="283,393 282,394.8 281.1,394.3 282.1,392.5 	"/>
	<rect x="280.7" y="397.4" transform="matrix(0.8754 0.4833 -0.4833 0.8754 227.5891 -86.2836)" width="1.1" height="2.1"/>
	<rect x="285.7" y="396.8" transform="matrix(0.8754 0.4833 -0.4833 0.8754 227.9192 -88.7955)" width="1.1" height="2.1"/>
	<polygon points="286.7,389.7 285.7,391.5 284.8,391 285.8,389.1 	"/>
	<polygon points="294.7,389.1 293.6,391 292.7,390.4 293.7,388.6 	"/>
	<polygon points="291.9,393.7 290.8,395.6 289.9,395.1 290.9,393.2 	"/>
	<polygon points="295.6,393.3 294.6,395.2 293.6,394.6 294.7,392.8 	"/>
	<polygon points="294.9,396.8 294.8,397 293.9,398.6 293,398.1 293.6,397 294,396.3 	"/>
	<polygon points="291.8,389.3 290.8,391.1 289.9,390.6 290.9,388.8 	"/>
	<polygon points="286.7,393.6 285.7,395.4 284.8,394.9 285.8,393.1 	"/>
	<polygon points="282.8,380.9 281.2,382.3 280.5,381.5 282.1,380.1 	"/>
	<polygon points="283.2,377.2 281.6,378.6 280.9,377.8 282.5,376.4 	"/>
	<rect x="275.6" y="386" transform="matrix(0.7442 -0.6679 0.6679 0.7442 -187.4173 283.6529)" width="2.1" height="1.1"/>
	<rect x="278.8" y="387" transform="matrix(0.7487 -0.6629 0.6629 0.7487 -186.5768 282.9052)" width="2.1" height="1.1"/>
	<rect x="280.8" y="383" transform="matrix(0.7487 -0.6629 0.6629 0.7487 -183.4228 283.2258)" width="2.1" height="1.1"/>
	<rect x="272.8" y="393.4" transform="matrix(0.7443 -0.6679 0.6679 0.7443 -193.0905 283.6864)" width="2.1" height="1.1"/>
	<polygon points="274,390.3 272.5,391.7 271.7,390.9 273.3,389.5 	"/>
	<rect x="278.5" y="390.7" transform="matrix(0.7487 -0.6629 0.6629 0.7487 -189.0543 283.6093)" width="2.1" height="1.1"/>
	<polygon points="317.9,385.6 316.9,387.5 315.9,387 317,385.1 	"/>
	<polygon points="315,381.3 313.9,383.2 313,382.7 314,380.8 	"/>
	<polygon points="312.5,385.8 311.5,387.7 310.5,387.1 311.5,385.3 	"/>
	<rect x="307.2" y="376.5" transform="matrix(0.7071 -0.7071 0.7071 0.7071 -176.8387 328.1436)" width="1.1" height="2.1"/>
	<rect x="313.5" y="375.1" transform="matrix(0.7071 -0.7071 0.7071 0.7071 -174.013 332.2254)" width="1.1" height="2.1"/>
	<rect x="301.6" y="376.1" transform="matrix(0.7071 -0.7071 0.7071 0.7071 -178.1651 324.1014)" width="1.1" height="2.1"/>
	<polygon points="309.1,393.8 308,395.6 307.1,395.1 308.1,393.3 	"/>
	<polygon points="312.8,390.5 311.8,392.3 310.8,391.8 311.8,390 	"/>
	<polygon points="317.5,389.8 316.8,391.7 315.8,391.4 316.5,389.4 	"/>
	<polygon points="321.7,384.7 321,386.7 320,386.3 320.7,384.3 	"/>
	<polygon points="323.7,386.7 323,388.7 322,388.3 322.7,386.3 	"/>
	<polygon points="315.5,395.7 314.5,396.1 314.1,395.3 313.6,394.2 314.6,393.8 315,394.8 	"/>
	<polygon points="309.2,398.1 308.3,398.6 307.5,397 307.4,396.7 308.3,396.2 308.7,397 	"/>
	<polygon points="302.2,397.1 301.2,399 300.3,398.5 301.1,397 301.3,396.6 301.8,396.9 	"/>
	<polygon points="308.8,381.7 307.3,383.1 306.5,382.3 308.1,380.9 	"/>
	<polygon points="304.5,380.7 302.9,382.1 302.2,381.3 303.8,379.9 	"/>
	<rect x="302.3" y="383.6" transform="matrix(0.7487 -0.6629 0.6629 0.7487 -178.3714 297.6278)" width="2.1" height="1.1"/>
	<rect x="298" y="378.7" transform="matrix(0.7487 -0.6629 0.6629 0.7487 -176.2153 293.4803)" width="2.1" height="1.1"/>
	<rect x="296.9" y="381.5" transform="matrix(0.7466 -0.6652 0.6652 0.7466 -178.6233 295.0158)" width="2.1" height="1.1"/>
	<polygon points="294.6,376.2 293,377.6 292.3,376.8 293.9,375.4 	"/>
	<rect x="301.7" y="386.8" transform="matrix(0.7442 -0.6679 0.6679 0.7442 -181.2889 301.2567)" width="2.1" height="1.1"/>
	<polygon points="307.1,388.1 305.5,389.5 304.8,388.7 306.4,387.3 	"/>
	<rect x="298.9" y="394.2" transform="matrix(0.7442 -0.6679 0.6679 0.7442 -186.9667 301.3094)" width="2.1" height="1.1"/>
	<polygon points="300.1,391.1 298.5,392.5 297.8,391.7 299.4,390.3 	"/>
	<polygon points="306.8,391.7 305.2,393.1 304.5,392.3 306,390.9 	"/>
	<polygon points="274.1,385.6 273,387.5 272.1,387 273.1,385.1 	"/>
	<polygon points="268.7,385.8 267.6,387.7 266.7,387.1 267.7,385.3 	"/>
	<polygon points="264.1,391.4 264.3,393.5 263.3,393.6 263,391.5 	"/>
	<polygon points="287.6,382.7 286.6,383.2 285.7,381.3 286.7,380.8 	"/>
	<polygon points="287.1,379.1 286.2,379.5 285.3,377.6 286.2,377.2 	"/>
	<polygon points="277.6,377.8 276.6,378.3 275.7,376.4 276.7,375.9 	"/>
	<polygon points="290.2,379.4 289.3,379.9 288.4,378 289.3,377.5 	"/>
	<polygon points="278,381.8 277,382.2 276.1,380.3 277,379.9 	"/>
	<polygon points="259.2,391.8 258.2,393.6 257.3,393.1 258.3,391.3 	"/>
	<polygon points="261.2,394.8 260.2,396.6 259.3,396.1 260.3,394.3 	"/>
	<polygon points="268.9,390.5 267.9,392.3 267,391.8 268,390 	"/>
	<polygon points="273.9,382.5 272.9,384.3 272,383.8 273,382 	"/>
	<polygon points="270.8,392.2 269.8,394 268.9,393.5 269.9,391.7 	"/>
	<polygon points="266.8,397.2 265.8,399 264.9,398.5 265.9,396.7 	"/>
	<polygon points="276.9,389.9 275.9,391.8 274.9,391.2 276,389.4 	"/>
	<polygon points="272.5,398.6 271.6,399.1 270.7,397.2 271.1,397 271.7,396.7 271.8,397 	"/>
	<polygon points="279.8,397.6 278.9,398.1 278,396.2 278.4,396 278.9,395.7 279.1,396 	"/>
	<polygon points="298.2,398.6 297.2,399.1 296.3,397.2 296.7,397 297.3,396.7 297.4,397 	"/>
	<rect x="261.8" y="377.1" transform="matrix(0.7443 -0.6679 0.6679 0.7443 -185.0303 272.1306)" width="2.1" height="1.1"/>
	<rect x="268.8" y="376.6" transform="matrix(0.7466 -0.6652 0.6652 0.7466 -182.5033 275.0638)" width="2.1" height="1.1"/>
	<rect x="270.8" y="379.6" transform="matrix(0.7466 -0.6652 0.6652 0.7466 -183.9922 277.1544)" width="2.1" height="1.1"/>
	<polygon points="260,387 258.5,388.4 257.8,387.6 259.3,386.2 	"/>
	<polygon points="263.2,388.1 261.7,389.5 261,388.7 262.5,387.3 	"/>
	<polygon points="256.2,391.1 255.8,391.5 254.7,392.5 254,391.7 255,390.7 255.5,390.3 	"/>
	<rect x="253.3" y="387.1" transform="matrix(0.7466 -0.6653 0.6653 0.7466 -193.4239 267.4477)" width="2.1" height="1.1"/>
	<polygon points="188.2,315.5 187.2,315.8 186.6,313.8 187.6,313.5 	"/>
	<polygon points="186.8,320.9 184.7,321.4 184.5,320.4 186.5,319.9 	"/>
	<polygon points="181.7,320.5 179.7,321 179.4,320 181.5,319.5 	"/>
	<rect x="221.3" y="349.6" transform="matrix(0.9506 -0.3105 0.3105 0.9506 -97.7182 86.3543)" width="2.1" height="1.1"/>
	<rect x="241.5" y="362.6" transform="matrix(0.9506 -0.3105 0.3105 0.9506 -100.7769 93.2596)" width="2.1" height="1.1"/>
	<rect x="240.1" y="371.9" transform="matrix(0.9506 -0.3105 0.3105 0.9506 -103.7152 93.2828)" width="2.1" height="1.1"/>
	<polygon points="241.5,376.3 240.3,376.7 239.5,377 239.1,376 239.4,375.9 241.1,375.3 	"/>
	<rect x="231.9" y="360.3" transform="matrix(0.9506 -0.3105 0.3105 0.9506 -100.5206 90.1497)" width="2.1" height="1.1"/>
	<polygon points="235.7,371.4 235.1,371.9 234.9,372.1 233.5,370.5 233.5,370.5 234.3,369.8 	"/>
	<polygon points="241.2,367.5 240.9,368.5 238.9,367.8 239.2,366.8 	"/>
	<polygon points="237.9,365.1 237.5,366.1 235.6,365.4 235.9,364.4 	"/>
	<polygon points="231.6,357.4 229.6,358 229.3,357 231.3,356.4 	"/>
	<polygon points="238.8,358.8 238,359.5 236.7,357.8 237.6,357.1 	"/>
	<rect x="223.5" y="354.1" transform="matrix(0.9506 -0.3105 0.3105 0.9506 -99.0258 87.2597)" width="2.1" height="1.1"/>
	<polygon points="231.1,366.5 229.6,367 229.2,367.1 228.9,366.3 228.8,366.1 230.8,365.5 	"/>
	<polygon points="229.7,362.8 229.2,363.7 227.4,362.7 227.9,361.8 	"/>
	<polygon points="220.4,356.6 219.9,357.5 218,356.5 218.5,355.6 	"/>
	<polygon points="226.8,347.6 224.8,348.2 224.5,347.2 226.5,346.5 	"/>
	<polygon points="253.1,371.4 252.6,372.4 250.8,371.4 251.3,370.4 	"/>
	<rect x="246.3" y="372.1" transform="matrix(0.9594 -0.2822 0.2822 0.9594 -95.2486 84.8047)" width="1.1" height="2.1"/>
	<rect x="245.3" y="378.1" transform="matrix(0.9594 -0.2822 0.2822 0.9594 -96.9821 84.7664)" width="1.1" height="2.1"/>
	<rect x="245.3" y="368.1" transform="matrix(0.9594 -0.2822 0.2822 0.9594 -94.1606 84.3601)" width="1.1" height="2.1"/>
	<polygon points="245.2,376.6 243.3,377.6 242.8,376.7 244.7,375.6 	"/>
	<polygon points="250.5,380.3 248.7,381.3 248.2,380.3 250,379.3 	"/>
	<polygon points="251.8,384.5 250,385.5 249.5,384.6 251.3,383.6 	"/>
	<polygon points="250.6,376 248.8,377 248.3,376.1 250.1,375 	"/>
	<polygon points="255.6,375 253.8,376 253.3,375.1 255.1,374 	"/>
	<polygon points="255.7,378.7 253.9,379.8 253.4,378.8 255.2,377.8 	"/>
	<rect x="256" y="381" width="2" height="1"/>
	<polygon points="220,347.5 218,348.2 217.7,347.3 217.6,347.1 218.1,347 219.6,346.5 	"/>
	<polygon points="221.7,353.9 219.7,354.6 219.4,353.6 221.4,352.9 	"/>
	<polygon points="184.7,314.4 183.2,315.8 182.5,315.1 184,313.6 	"/>
	<polygon points="183.5,308.4 181.5,308.9 181.2,307.9 183.3,307.4 	"/>
	<polygon points="179.5,301.3 179,301.4 177.5,301.8 177.2,300.8 179,300.3 179.2,300.2 	"/>
	<polygon points="185.5,301.7 185.4,303.8 184.3,303.8 184.4,301.7 	"/>
	<polygon points="191,316.4 190.3,318.4 189.3,318.1 190,316.1 	"/>
	<rect x="176.7" y="313.5" transform="matrix(0.7979 0.6028 -0.6028 0.7979 225.4081 -43.2965)" width="1.1" height="2.1"/>
	<polygon points="186.1,288.8 185.1,289.2 184.5,287.1 185.5,286.8 	"/>
	<rect x="182.6" y="293.5" transform="matrix(0.9649 -0.2627 0.2627 0.9649 -70.7991 58.5662)" width="2.1" height="1.1"/>
	<rect x="180.5" y="287.6" transform="matrix(0.726 -0.6877 0.6877 0.726 -148.4398 203.805)" width="2.1" height="1.1"/>
	<polygon points="181.4,281.8 179.4,282.4 179.1,281.2 179.1,281 179.1,281 181.1,280.6 	"/>
	<rect x="182.8" y="326.3" transform="matrix(0.9649 -0.2627 0.2627 0.9649 -79.4025 59.7779)" width="2.1" height="1.1"/>
	<polygon points="183.2,275.1 183.2,277.2 182.1,277.2 182.2,275.1 	"/>
	<polygon points="188.9,289.7 188.3,291.7 187.3,291.4 187.9,289.4 	"/>
	<rect x="189.3" y="282" transform="matrix(0.5916 -0.8063 0.8063 0.5916 -150.0343 268.829)" width="2.1" height="1.1"/>
	<rect x="193.4" y="329.5" transform="matrix(0.7257 -0.688 0.688 0.7257 -174.2064 224.0668)" width="1.1" height="2.1"/>
	<polygon points="196.2,336.4 194.7,337.8 194,337 195.5,335.6 	"/>
	<rect x="199.2" y="335.9" transform="matrix(0.7487 -0.6629 0.6629 0.7487 -172.691 217.2979)" width="2.1" height="1.1"/>
	<polygon points="191.5,331.5 190.7,333.5 189.7,333.1 190.5,331.2 	"/>
	<polygon points="187.7,326.7 186.1,328.1 185.4,327.3 187,325.9 	"/>
	<rect x="177.5" y="321.6" transform="matrix(-0.9093 0.4162 -0.4162 -0.9093 474.1154 541.9268)" width="1.1" height="2.1"/>
	<polygon points="387.1,280.9 386.1,281.2 385.5,279.2 386.5,278.9 	"/>
	<polygon points="389.2,274.4 387.3,275 387.3,275 387.2,274.9 387,274.2 387,273.8 387.9,273.6 389,273.3 	"/>
	<rect x="389" y="279.5" transform="matrix(0.7443 -0.6679 0.6679 0.7443 -87.248 332.1383)" width="2.1" height="1.1"/>
	<rect x="392.9" y="277.4" transform="matrix(0.7466 -0.6653 0.6653 0.7466 -85.0864 332.5039)" width="2.1" height="1.1"/>
	<polygon points="392.3,286.8 390.3,287.3 390,286.3 392.1,285.8 	"/>
	<polygon points="395.4,294.8 393.4,295.3 393.2,294.3 395.2,293.8 	"/>
	<polygon points="389.2,290.9 389.1,293 388,293 388.2,290.9 	"/>
	<polygon points="384.4,276.6 383.7,278.6 382.7,278.2 383.3,276.2 	"/>
	<polygon points="387.8,285.4 386.5,287 385.7,286.4 387,284.7 	"/>
	<rect x="387.6" y="305.7" transform="matrix(0.9594 -0.2822 0.2822 0.9594 -70.7742 121.9734)" width="1.1" height="2.1"/>
	<polygon points="391,300.9 389,301.5 388.7,300.4 390.7,299.9 	"/>
	<polygon points="396.9,300.6 395.6,301 394.8,301.2 394.6,300.1 395.5,299.9 396.6,299.6 	"/>
	<rect x="384.3" y="295" transform="matrix(0.9673 -0.2538 0.2538 0.9673 -62.3936 107.4543)" width="2.1" height="1.1"/>
	<rect x="390.8" y="306.1" transform="matrix(0.7352 -0.6779 0.6779 0.7352 -104.046 346.8509)" width="2.1" height="1.1"/>
	<polygon points="394.2,313.4 392.2,313.9 392,312.9 394,312.4 	"/>
	<polygon points="396.2,310.2 395.9,310.3 394.1,310.8 393.9,309.7 395.9,309.2 395.9,309.2 	"/>
	<polygon points="391.2,317.5 391.1,319.6 390,319.6 390.1,317.5 	"/>
	<polygon points="386.1,303.3 385.5,305.3 384.5,304.9 385.1,302.9 	"/>
	<polygon points="384.1,311.6 382.8,313.3 382,312.7 383.2,311 	"/>
	<polygon points="388.3,274.5 387.3,275 387.3,275 387,274.2 386.5,272.9 387.5,272.5 387.9,273.6 	"/>
	<polygon points="394.9,273.4 393.9,273.8 393,271.9 394,271.5 	"/>
	<polygon points="198.3,332.5 197.2,332.7 196.9,330.6 198,330.5 	"/>
	<polygon points="196.7,322.4 196.3,324.5 195.3,324.3 195.7,322.2 	"/>
	<polygon points="192.4,322.9 192,325 191,324.8 191.3,322.7 	"/>
	<polygon points="206.6,335.6 205.6,335.8 204.6,336.1 204.3,335 206.2,334.6 206.2,334.6 206.4,334.5 206.5,335.2 	"/>
	<polygon points="204.9,341.7 202.8,342.3 202.6,341.2 204.6,340.7 	"/>
	<rect x="213.3" y="344.1" transform="matrix(0.7301 -0.6833 0.6833 0.7301 -178.1631 239.2255)" width="1.1" height="2.1"/>
	<rect x="213.9" y="350.8" transform="matrix(0.7487 -0.6629 0.6629 0.7487 -178.8825 230.7882)" width="2.1" height="1.1"/>
	<polygon points="222.8,359.8 222.1,360.3 221.2,361.2 220.5,360.4 221.3,359.6 222.1,359 	"/>
	<polygon points="211.3,346.2 210.6,348.2 209.6,347.8 210.3,345.8 	"/>
	<rect x="205.4" y="341.2" transform="matrix(0.7487 -0.6629 0.6629 0.7487 -174.6292 222.6798)" width="2.1" height="1.1"/>
	<polygon points="206.6,345.7 205.6,346.6 205,347.1 204.3,346.3 204.8,345.9 205.9,344.9 	"/>
	<polygon points="207.1,336.5 206.1,336.9 205.6,335.8 205.3,335 206.2,334.6 206.2,334.6 206.5,335.2 	"/>
	<polygon points="218.2,347.2 217.7,347.3 217.1,347.4 216.8,345.3 217.8,345.1 218.1,347 	"/>
	<polygon points="216.6,337.1 216.2,339.1 215.2,339 215.5,336.9 	"/>
	<polygon points="341.1,364.8 340.1,365 339.8,362.9 340.8,362.8 	"/>
	<polygon points="324.9,382.5 323.8,382.7 323.5,380.6 324.6,380.5 	"/>
	<polygon points="328.8,373.4 327.8,373.6 327.5,371.5 328.5,371.3 	"/>
	<polygon points="327.8,377.4 326.8,377.6 326.5,375.5 327.5,375.3 	"/>
	<polygon points="328.2,380.7 327.2,382.5 326.2,382 327.3,380.2 	"/>
	<polygon points="332.8,371.6 331.7,371.7 331.4,369.7 332.5,369.5 	"/>
	<polygon points="334.8,377.6 333.7,377.7 333.4,375.7 334.5,375.5 	"/>
	<polygon points="331,377.7 329.1,378.6 328.6,377.7 330.5,376.7 	"/>
	<polygon points="336.3,366.2 335.2,366.4 334.9,364.3 336,364.2 	"/>
	<polygon points="340,371.6 338.9,371.7 338.6,369.7 339.7,369.5 	"/>
	<polygon points="336.3,372.3 335.2,372.5 334.9,370.4 336,370.2 	"/>
	<polygon points="338.3,368.3 337.2,368.5 336.9,366.4 338,366.2 	"/>
	<polygon points="323.9,369.6 322.9,369.8 322.5,367.7 323.6,367.6 	"/>
	<polygon points="328,367.3 326.7,369 325.9,368.3 327.2,366.7 	"/>
	<polygon points="343.3,368.5 342.2,368.7 341.9,366.6 343,366.4 	"/>
	<polygon points="332.2,367.6 331.1,367.8 330.8,365.7 331.9,365.5 	"/>
	<polygon points="344.5,361.7 343.4,361.9 343.1,359.8 344.1,359.7 	"/>
	<polygon points="337.8,362.4 336.8,362.6 336.5,360.5 337.5,360.3 	"/>
	<polygon points="359.2,343.8 358.3,344.4 357.2,342.6 358.1,342 	"/>
	<polygon points="352.7,347.9 351.6,348 351.4,345.9 352.5,345.8 	"/>
	<rect x="345.7" y="355.7" transform="matrix(0.8335 -0.5525 0.5525 0.8335 -139.076 250.8667)" width="2.1" height="1.1"/>
	<rect x="339.9" y="355.3" transform="matrix(0.8491 -0.5283 0.5283 0.8491 -136.8692 233.645)" width="1.1" height="2.1"/>
	<rect x="345" y="351.6" transform="matrix(0.4992 -0.8665 0.8665 0.4992 -132.5294 475.978)" width="1.1" height="2.1"/>
	<polygon points="352.4,350.1 351.5,350.7 350.4,348.9 351.3,348.3 	"/>
	<polygon points="354,356.3 353.1,356.9 352,355.1 352.9,354.5 	"/>
	<rect x="347" y="361" width="2" height="1"/>
	<polygon points="354.6,359.3 354.3,360.3 353.1,359.9 352.3,359.6 352.6,358.6 354,359.1 	"/>
	<polygon points="363.4,351.7 362.6,351.9 362.3,351.9 362,349.8 363.1,349.7 363.3,351.3 	"/>
	<polygon points="358.5,353.1 357.5,353.3 357.1,351.2 358.2,351.1 	"/>
	<polygon points="391.8,326.5 390.8,326.6 390.5,324.6 391.5,324.4 	"/>
	<polygon points="386,326.6 384.9,326.8 384.6,324.7 385.7,324.5 	"/>
	<polygon points="366.7,348.7 366.5,348.7 365.7,348.8 365.3,346.8 366.3,346.6 366.4,346.6 366.5,347.1 366.7,348.5 	"/>
	<polygon points="360.1,349.3 359,349.5 358.7,347.4 359.8,347.3 	"/>
	<rect x="379.9" y="329.1" transform="matrix(0.8491 -0.5283 0.5283 0.8491 -116.9694 250.816)" width="1.1" height="2.1"/>
	<polygon points="386.3,331.4 385.4,332 384.3,330.2 385.2,329.6 	"/>
	<polygon points="374.9,334.8 373.9,334.9 373.7,332.8 374.7,332.7 	"/>
	<polygon points="379.8,335.6 378.8,335.7 378.5,333.6 379.6,333.5 	"/>
	<rect x="367.9" y="342.6" transform="matrix(0.8335 -0.5525 0.5525 0.8335 -128.1453 260.982)" width="2.1" height="1.1"/>
	<polygon points="376.8,339.5 375.1,340.7 374.5,339.8 376.2,338.6 	"/>
	<rect x="362.2" y="342.2" transform="matrix(0.8491 -0.5283 0.5283 0.8491 -126.6008 243.4252)" width="1.1" height="2.1"/>
	<polygon points="368.9,339.6 368.4,340.5 366.6,339.5 367.1,338.6 	"/>
	<polygon points="374.6,337 373.7,337.6 372.6,335.8 373.5,335.3 	"/>
	<rect x="366" y="346" width="2" height="1"/>
	<polygon points="383.8,319.8 383.4,320.8 381.5,320.1 381.8,319.1 	"/>
	<polygon points="397,319.6 396.7,320.6 395.7,320.2 395.6,320.2 394.7,319.9 395.1,318.9 395.8,319.1 	"/>
	<polygon points="395.9,319.7 395.7,320.2 395.5,320.7 395.5,320.7 393.5,320 393.9,319 394.9,319.4 395.7,319.7 	"/>
	<polygon points="381.2,325.5 380.8,326.5 378.8,325.8 379.2,324.8 	"/>
	<rect x="322.6" y="372.5" transform="matrix(0.7071 -0.7071 0.7071 0.7071 -169.5192 337.8944)" width="1.1" height="2.1"/>
	<rect x="317" y="372.1" transform="matrix(0.7024 -0.7118 0.7118 0.7024 -171.0994 337.0861)" width="1.1" height="2.1"/>
	<rect x="322.1" y="377.5" transform="matrix(0.7442 -0.6679 0.6679 0.7442 -169.8597 312.5036)" width="2.1" height="1.1"/>
	<rect x="317.7" y="376.5" transform="matrix(0.7466 -0.6653 0.6653 0.7466 -170.0806 307.6146)" width="2.1" height="1.1"/>
	<polygon points="320,379.8 318.4,381.2 317.7,380.4 319.2,379 	"/>
	<polygon points="278,381.8 277,382.2 276.1,380.3 277,379.9 	"/>
	<polygon points="270,383.8 269,384.2 268.1,382.3 269,381.9 	"/>
	<polygon points="264,382.8 263,383.2 262.1,381.3 263,380.9 	"/>
	<polygon points="267,380.8 266,381.2 265.1,379.3 266,378.9 	"/>
</g>
<g id="Intro_logo">
</g>
<g id="_background">
</g>
</svg>
